ISO-10303-21;
HEADER;
/* Generated by software containing ST-Developer
 * from STEP Tools, Inc. (www.steptools.com) 
 */

FILE_DESCRIPTION(
/* description */ (''),
/* implementation_level */ '2;1');

FILE_NAME(
/* name */ 'SKY13453-385LF.step',
/* time_stamp */ '2026-01-18T21:48:24+08:00',
/* author */ (''),
/* organization */ (''),
/* preprocessor_version */ 'ST-DEVELOPER v20.1',
/* originating_system */ 'Autodesk Translation Framework v14.21.0.0',
/* authorisation */ '');

FILE_SCHEMA (('AUTOMOTIVE_DESIGN { 1 0 10303 214 3 1 1 }'));
ENDSEC;

DATA;
#10=MECHANICAL_DESIGN_GEOMETRIC_PRESENTATION_REPRESENTATION('',(#13,#14,
#15,#16,#17,#18,#19),#2021);
#11=SHAPE_REPRESENTATION_RELATIONSHIP('SRR','None',#2028,#12);
#12=ADVANCED_BREP_SHAPE_REPRESENTATION('',(#20,#21,#22,#23,#24,#25,#26),
#2020);
#13=STYLED_ITEM('',(#2037),#20);
#14=STYLED_ITEM('',(#2038),#21);
#15=STYLED_ITEM('',(#2038),#22);
#16=STYLED_ITEM('',(#2038),#23);
#17=STYLED_ITEM('',(#2038),#24);
#18=STYLED_ITEM('',(#2038),#25);
#19=STYLED_ITEM('',(#2038),#26);
#20=MANIFOLD_SOLID_BREP('\X2\5B9E4F53\X0\1',#1251);
#21=MANIFOLD_SOLID_BREP('\X2\5B9E4F53\X0\2',#1252);
#22=MANIFOLD_SOLID_BREP('\X2\5B9E4F53\X0\3',#1253);
#23=MANIFOLD_SOLID_BREP('\X2\5B9E4F53\X0\4',#1254);
#24=MANIFOLD_SOLID_BREP('\X2\5B9E4F53\X0\5',#1255);
#25=MANIFOLD_SOLID_BREP('\X2\5B9E4F53\X0\6',#1256);
#26=MANIFOLD_SOLID_BREP('\X2\5B9E4F53\X0\7',#1257);
#27=CIRCLE('',#1299,0.05);
#28=CIRCLE('',#1300,0.05);
#29=CIRCLE('',#1302,0.0500000000000001);
#30=CIRCLE('',#1303,0.0500000000000001);
#31=CIRCLE('',#1305,0.0499999999999998);
#32=CIRCLE('',#1306,0.0499999999999998);
#33=CIRCLE('',#1309,0.05);
#34=CIRCLE('',#1310,0.05);
#35=CYLINDRICAL_SURFACE('',#1298,0.05);
#36=CYLINDRICAL_SURFACE('',#1301,0.0500000000000001);
#37=CYLINDRICAL_SURFACE('',#1304,0.0499999999999998);
#38=CYLINDRICAL_SURFACE('',#1308,0.05);
#39=FACE_OUTER_BOUND('',#109,.T.);
#40=FACE_OUTER_BOUND('',#110,.T.);
#41=FACE_OUTER_BOUND('',#111,.T.);
#42=FACE_OUTER_BOUND('',#112,.T.);
#43=FACE_OUTER_BOUND('',#113,.T.);
#44=FACE_OUTER_BOUND('',#114,.T.);
#45=FACE_OUTER_BOUND('',#115,.T.);
#46=FACE_OUTER_BOUND('',#116,.T.);
#47=FACE_OUTER_BOUND('',#117,.T.);
#48=FACE_OUTER_BOUND('',#118,.T.);
#49=FACE_OUTER_BOUND('',#119,.T.);
#50=FACE_OUTER_BOUND('',#120,.T.);
#51=FACE_OUTER_BOUND('',#121,.T.);
#52=FACE_OUTER_BOUND('',#122,.T.);
#53=FACE_OUTER_BOUND('',#123,.T.);
#54=FACE_OUTER_BOUND('',#124,.T.);
#55=FACE_OUTER_BOUND('',#125,.T.);
#56=FACE_OUTER_BOUND('',#126,.T.);
#57=FACE_OUTER_BOUND('',#127,.T.);
#58=FACE_OUTER_BOUND('',#128,.T.);
#59=FACE_OUTER_BOUND('',#129,.T.);
#60=FACE_OUTER_BOUND('',#130,.T.);
#61=FACE_OUTER_BOUND('',#131,.T.);
#62=FACE_OUTER_BOUND('',#132,.T.);
#63=FACE_OUTER_BOUND('',#133,.T.);
#64=FACE_OUTER_BOUND('',#134,.T.);
#65=FACE_OUTER_BOUND('',#135,.T.);
#66=FACE_OUTER_BOUND('',#136,.T.);
#67=FACE_OUTER_BOUND('',#137,.T.);
#68=FACE_OUTER_BOUND('',#138,.T.);
#69=FACE_OUTER_BOUND('',#139,.T.);
#70=FACE_OUTER_BOUND('',#140,.T.);
#71=FACE_OUTER_BOUND('',#141,.T.);
#72=FACE_OUTER_BOUND('',#142,.T.);
#73=FACE_OUTER_BOUND('',#143,.T.);
#74=FACE_OUTER_BOUND('',#144,.T.);
#75=FACE_OUTER_BOUND('',#145,.T.);
#76=FACE_OUTER_BOUND('',#146,.T.);
#77=FACE_OUTER_BOUND('',#147,.T.);
#78=FACE_OUTER_BOUND('',#148,.T.);
#79=FACE_OUTER_BOUND('',#149,.T.);
#80=FACE_OUTER_BOUND('',#150,.T.);
#81=FACE_OUTER_BOUND('',#151,.T.);
#82=FACE_OUTER_BOUND('',#152,.T.);
#83=FACE_OUTER_BOUND('',#153,.T.);
#84=FACE_OUTER_BOUND('',#154,.T.);
#85=FACE_OUTER_BOUND('',#155,.T.);
#86=FACE_OUTER_BOUND('',#156,.T.);
#87=FACE_OUTER_BOUND('',#157,.T.);
#88=FACE_OUTER_BOUND('',#158,.T.);
#89=FACE_OUTER_BOUND('',#159,.T.);
#90=FACE_OUTER_BOUND('',#160,.T.);
#91=FACE_OUTER_BOUND('',#161,.T.);
#92=FACE_OUTER_BOUND('',#162,.T.);
#93=FACE_OUTER_BOUND('',#163,.T.);
#94=FACE_OUTER_BOUND('',#164,.T.);
#95=FACE_OUTER_BOUND('',#165,.T.);
#96=FACE_OUTER_BOUND('',#166,.T.);
#97=FACE_OUTER_BOUND('',#167,.T.);
#98=FACE_OUTER_BOUND('',#168,.T.);
#99=FACE_OUTER_BOUND('',#169,.T.);
#100=FACE_OUTER_BOUND('',#170,.T.);
#101=FACE_OUTER_BOUND('',#171,.T.);
#102=FACE_OUTER_BOUND('',#172,.T.);
#103=FACE_OUTER_BOUND('',#173,.T.);
#104=FACE_OUTER_BOUND('',#174,.T.);
#105=FACE_OUTER_BOUND('',#175,.T.);
#106=FACE_OUTER_BOUND('',#176,.T.);
#107=FACE_OUTER_BOUND('',#177,.T.);
#108=FACE_OUTER_BOUND('',#178,.T.);
#109=EDGE_LOOP('',(#779,#780,#781,#782));
#110=EDGE_LOOP('',(#783,#784,#785,#786));
#111=EDGE_LOOP('',(#787,#788,#789,#790));
#112=EDGE_LOOP('',(#791,#792,#793,#794));
#113=EDGE_LOOP('',(#795,#796,#797,#798));
#114=EDGE_LOOP('',(#799,#800,#801,#802));
#115=EDGE_LOOP('',(#803,#804,#805,#806));
#116=EDGE_LOOP('',(#807,#808,#809,#810));
#117=EDGE_LOOP('',(#811,#812,#813,#814));
#118=EDGE_LOOP('',(#815,#816,#817,#818));
#119=EDGE_LOOP('',(#819,#820,#821,#822));
#120=EDGE_LOOP('',(#823,#824,#825,#826));
#121=EDGE_LOOP('',(#827,#828,#829,#830));
#122=EDGE_LOOP('',(#831,#832,#833,#834));
#123=EDGE_LOOP('',(#835,#836,#837,#838));
#124=EDGE_LOOP('',(#839,#840,#841,#842));
#125=EDGE_LOOP('',(#843,#844,#845,#846));
#126=EDGE_LOOP('',(#847,#848,#849,#850));
#127=EDGE_LOOP('',(#851,#852,#853,#854));
#128=EDGE_LOOP('',(#855,#856,#857,#858));
#129=EDGE_LOOP('',(#859,#860,#861,#862));
#130=EDGE_LOOP('',(#863,#864,#865,#866));
#131=EDGE_LOOP('',(#867,#868,#869,#870));
#132=EDGE_LOOP('',(#871,#872,#873,#874));
#133=EDGE_LOOP('',(#875,#876,#877,#878,#879,#880,#881,#882));
#134=EDGE_LOOP('',(#883,#884,#885,#886,#887,#888,#889,#890));
#135=EDGE_LOOP('',(#891,#892,#893,#894,#895,#896,#897,#898,#899,#900,#901,
#902));
#136=EDGE_LOOP('',(#903,#904,#905,#906));
#137=EDGE_LOOP('',(#907,#908,#909,#910));
#138=EDGE_LOOP('',(#911,#912,#913,#914));
#139=EDGE_LOOP('',(#915,#916,#917,#918,#919,#920,#921,#922,#923,#924,#925,
#926));
#140=EDGE_LOOP('',(#927,#928,#929,#930));
#141=EDGE_LOOP('',(#931,#932,#933,#934,#935,#936,#937,#938));
#142=EDGE_LOOP('',(#939,#940,#941,#942,#943,#944,#945,#946,#947,#948,#949,
#950,#951,#952,#953,#954,#955,#956,#957,#958,#959,#960,#961,#962,#963,#964,
#965,#966,#967,#968,#969,#970));
#143=EDGE_LOOP('',(#971,#972,#973,#974));
#144=EDGE_LOOP('',(#975,#976,#977,#978));
#145=EDGE_LOOP('',(#979,#980,#981,#982));
#146=EDGE_LOOP('',(#983,#984,#985,#986));
#147=EDGE_LOOP('',(#987,#988,#989,#990));
#148=EDGE_LOOP('',(#991,#992,#993,#994));
#149=EDGE_LOOP('',(#995,#996,#997,#998));
#150=EDGE_LOOP('',(#999,#1000,#1001,#1002));
#151=EDGE_LOOP('',(#1003,#1004,#1005,#1006));
#152=EDGE_LOOP('',(#1007,#1008,#1009,#1010));
#153=EDGE_LOOP('',(#1011,#1012,#1013,#1014));
#154=EDGE_LOOP('',(#1015,#1016,#1017,#1018));
#155=EDGE_LOOP('',(#1019,#1020,#1021,#1022));
#156=EDGE_LOOP('',(#1023,#1024,#1025,#1026));
#157=EDGE_LOOP('',(#1027,#1028,#1029,#1030));
#158=EDGE_LOOP('',(#1031,#1032,#1033,#1034));
#159=EDGE_LOOP('',(#1035,#1036,#1037,#1038));
#160=EDGE_LOOP('',(#1039,#1040,#1041,#1042));
#161=EDGE_LOOP('',(#1043,#1044,#1045,#1046));
#162=EDGE_LOOP('',(#1047,#1048,#1049,#1050));
#163=EDGE_LOOP('',(#1051,#1052,#1053,#1054));
#164=EDGE_LOOP('',(#1055,#1056,#1057,#1058));
#165=EDGE_LOOP('',(#1059,#1060,#1061,#1062));
#166=EDGE_LOOP('',(#1063,#1064,#1065,#1066));
#167=EDGE_LOOP('',(#1067,#1068,#1069,#1070));
#168=EDGE_LOOP('',(#1071,#1072,#1073,#1074));
#169=EDGE_LOOP('',(#1075,#1076,#1077,#1078));
#170=EDGE_LOOP('',(#1079,#1080,#1081,#1082));
#171=EDGE_LOOP('',(#1083,#1084,#1085,#1086));
#172=EDGE_LOOP('',(#1087,#1088,#1089,#1090));
#173=EDGE_LOOP('',(#1091,#1092,#1093,#1094));
#174=EDGE_LOOP('',(#1095,#1096,#1097,#1098));
#175=EDGE_LOOP('',(#1099,#1100,#1101,#1102));
#176=EDGE_LOOP('',(#1103,#1104,#1105,#1106));
#177=EDGE_LOOP('',(#1107,#1108,#1109,#1110));
#178=EDGE_LOOP('',(#1111,#1112,#1113,#1114));
#179=LINE('',#1671,#339);
#180=LINE('',#1673,#340);
#181=LINE('',#1675,#341);
#182=LINE('',#1676,#342);
#183=LINE('',#1680,#343);
#184=LINE('',#1682,#344);
#185=LINE('',#1684,#345);
#186=LINE('',#1685,#346);
#187=LINE('',#1687,#347);
#188=LINE('',#1688,#348);
#189=LINE('',#1690,#349);
#190=LINE('',#1694,#350);
#191=LINE('',#1696,#351);
#192=LINE('',#1698,#352);
#193=LINE('',#1699,#353);
#194=LINE('',#1703,#354);
#195=LINE('',#1705,#355);
#196=LINE('',#1707,#356);
#197=LINE('',#1708,#357);
#198=LINE('',#1710,#358);
#199=LINE('',#1711,#359);
#200=LINE('',#1713,#360);
#201=LINE('',#1717,#361);
#202=LINE('',#1719,#362);
#203=LINE('',#1721,#363);
#204=LINE('',#1722,#364);
#205=LINE('',#1726,#365);
#206=LINE('',#1728,#366);
#207=LINE('',#1730,#367);
#208=LINE('',#1731,#368);
#209=LINE('',#1733,#369);
#210=LINE('',#1734,#370);
#211=LINE('',#1736,#371);
#212=LINE('',#1740,#372);
#213=LINE('',#1742,#373);
#214=LINE('',#1744,#374);
#215=LINE('',#1745,#375);
#216=LINE('',#1748,#376);
#217=LINE('',#1750,#377);
#218=LINE('',#1751,#378);
#219=LINE('',#1754,#379);
#220=LINE('',#1756,#380);
#221=LINE('',#1757,#381);
#222=LINE('',#1759,#382);
#223=LINE('',#1763,#383);
#224=LINE('',#1765,#384);
#225=LINE('',#1767,#385);
#226=LINE('',#1768,#386);
#227=LINE('',#1772,#387);
#228=LINE('',#1774,#388);
#229=LINE('',#1776,#389);
#230=LINE('',#1777,#390);
#231=LINE('',#1779,#391);
#232=LINE('',#1780,#392);
#233=LINE('',#1782,#393);
#234=LINE('',#1786,#394);
#235=LINE('',#1788,#395);
#236=LINE('',#1790,#396);
#237=LINE('',#1791,#397);
#238=LINE('',#1794,#398);
#239=LINE('',#1796,#399);
#240=LINE('',#1797,#400);
#241=LINE('',#1800,#401);
#242=LINE('',#1802,#402);
#243=LINE('',#1803,#403);
#244=LINE('',#1805,#404);
#245=LINE('',#1808,#405);
#246=LINE('',#1810,#406);
#247=LINE('',#1812,#407);
#248=LINE('',#1814,#408);
#249=LINE('',#1815,#409);
#250=LINE('',#1818,#410);
#251=LINE('',#1820,#411);
#252=LINE('',#1822,#412);
#253=LINE('',#1824,#413);
#254=LINE('',#1825,#414);
#255=LINE('',#1828,#415);
#256=LINE('',#1830,#416);
#257=LINE('',#1832,#417);
#258=LINE('',#1834,#418);
#259=LINE('',#1835,#419);
#260=LINE('',#1836,#420);
#261=LINE('',#1848,#421);
#262=LINE('',#1850,#422);
#263=LINE('',#1851,#423);
#264=LINE('',#1853,#424);
#265=LINE('',#1855,#425);
#266=LINE('',#1856,#426);
#267=LINE('',#1865,#427);
#268=LINE('',#1867,#428);
#269=LINE('',#1869,#429);
#270=LINE('',#1870,#430);
#271=LINE('',#1873,#431);
#272=LINE('',#1875,#432);
#273=LINE('',#1876,#433);
#274=LINE('',#1879,#434);
#275=LINE('',#1881,#435);
#276=LINE('',#1882,#436);
#277=LINE('',#1884,#437);
#278=LINE('',#1885,#438);
#279=LINE('',#1891,#439);
#280=LINE('',#1893,#440);
#281=LINE('',#1895,#441);
#282=LINE('',#1896,#442);
#283=LINE('',#1899,#443);
#284=LINE('',#1901,#444);
#285=LINE('',#1902,#445);
#286=LINE('',#1905,#446);
#287=LINE('',#1907,#447);
#288=LINE('',#1908,#448);
#289=LINE('',#1910,#449);
#290=LINE('',#1911,#450);
#291=LINE('',#1917,#451);
#292=LINE('',#1919,#452);
#293=LINE('',#1921,#453);
#294=LINE('',#1922,#454);
#295=LINE('',#1925,#455);
#296=LINE('',#1927,#456);
#297=LINE('',#1928,#457);
#298=LINE('',#1931,#458);
#299=LINE('',#1933,#459);
#300=LINE('',#1934,#460);
#301=LINE('',#1936,#461);
#302=LINE('',#1937,#462);
#303=LINE('',#1943,#463);
#304=LINE('',#1945,#464);
#305=LINE('',#1947,#465);
#306=LINE('',#1948,#466);
#307=LINE('',#1951,#467);
#308=LINE('',#1953,#468);
#309=LINE('',#1954,#469);
#310=LINE('',#1957,#470);
#311=LINE('',#1959,#471);
#312=LINE('',#1960,#472);
#313=LINE('',#1962,#473);
#314=LINE('',#1963,#474);
#315=LINE('',#1969,#475);
#316=LINE('',#1971,#476);
#317=LINE('',#1973,#477);
#318=LINE('',#1974,#478);
#319=LINE('',#1977,#479);
#320=LINE('',#1979,#480);
#321=LINE('',#1980,#481);
#322=LINE('',#1983,#482);
#323=LINE('',#1985,#483);
#324=LINE('',#1986,#484);
#325=LINE('',#1988,#485);
#326=LINE('',#1989,#486);
#327=LINE('',#1995,#487);
#328=LINE('',#1997,#488);
#329=LINE('',#1999,#489);
#330=LINE('',#2000,#490);
#331=LINE('',#2003,#491);
#332=LINE('',#2005,#492);
#333=LINE('',#2006,#493);
#334=LINE('',#2009,#494);
#335=LINE('',#2011,#495);
#336=LINE('',#2012,#496);
#337=LINE('',#2014,#497);
#338=LINE('',#2015,#498);
#339=VECTOR('',#1353,10.);
#340=VECTOR('',#1354,10.);
#341=VECTOR('',#1355,10.);
#342=VECTOR('',#1356,10.);
#343=VECTOR('',#1359,10.);
#344=VECTOR('',#1360,10.);
#345=VECTOR('',#1361,10.);
#346=VECTOR('',#1362,10.);
#347=VECTOR('',#1365,10.);
#348=VECTOR('',#1366,10.);
#349=VECTOR('',#1369,10.);
#350=VECTOR('',#1372,10.);
#351=VECTOR('',#1373,10.);
#352=VECTOR('',#1374,10.);
#353=VECTOR('',#1375,10.);
#354=VECTOR('',#1378,10.);
#355=VECTOR('',#1379,10.);
#356=VECTOR('',#1380,10.);
#357=VECTOR('',#1381,10.);
#358=VECTOR('',#1384,10.);
#359=VECTOR('',#1385,10.);
#360=VECTOR('',#1388,10.);
#361=VECTOR('',#1391,10.);
#362=VECTOR('',#1392,10.);
#363=VECTOR('',#1393,10.);
#364=VECTOR('',#1394,10.);
#365=VECTOR('',#1397,10.);
#366=VECTOR('',#1398,10.);
#367=VECTOR('',#1399,10.);
#368=VECTOR('',#1400,10.);
#369=VECTOR('',#1403,10.);
#370=VECTOR('',#1404,10.);
#371=VECTOR('',#1407,10.);
#372=VECTOR('',#1410,10.);
#373=VECTOR('',#1411,10.);
#374=VECTOR('',#1412,10.);
#375=VECTOR('',#1413,10.);
#376=VECTOR('',#1416,10.);
#377=VECTOR('',#1417,10.);
#378=VECTOR('',#1418,10.);
#379=VECTOR('',#1421,10.);
#380=VECTOR('',#1422,10.);
#381=VECTOR('',#1423,10.);
#382=VECTOR('',#1426,10.);
#383=VECTOR('',#1429,10.);
#384=VECTOR('',#1430,10.);
#385=VECTOR('',#1431,10.);
#386=VECTOR('',#1432,10.);
#387=VECTOR('',#1435,10.);
#388=VECTOR('',#1436,10.);
#389=VECTOR('',#1437,10.);
#390=VECTOR('',#1438,10.);
#391=VECTOR('',#1441,10.);
#392=VECTOR('',#1442,10.);
#393=VECTOR('',#1445,10.);
#394=VECTOR('',#1448,10.);
#395=VECTOR('',#1449,10.);
#396=VECTOR('',#1450,10.);
#397=VECTOR('',#1451,10.);
#398=VECTOR('',#1454,10.);
#399=VECTOR('',#1455,10.);
#400=VECTOR('',#1456,10.);
#401=VECTOR('',#1459,10.);
#402=VECTOR('',#1460,10.);
#403=VECTOR('',#1461,10.);
#404=VECTOR('',#1464,10.);
#405=VECTOR('',#1467,10.);
#406=VECTOR('',#1468,10.);
#407=VECTOR('',#1469,10.);
#408=VECTOR('',#1470,10.);
#409=VECTOR('',#1471,10.);
#410=VECTOR('',#1474,10.);
#411=VECTOR('',#1475,10.);
#412=VECTOR('',#1476,10.);
#413=VECTOR('',#1477,10.);
#414=VECTOR('',#1478,10.);
#415=VECTOR('',#1481,10.);
#416=VECTOR('',#1482,10.);
#417=VECTOR('',#1483,10.);
#418=VECTOR('',#1484,10.);
#419=VECTOR('',#1485,10.);
#420=VECTOR('',#1486,10.);
#421=VECTOR('',#1505,10.);
#422=VECTOR('',#1508,10.);
#423=VECTOR('',#1509,10.);
#424=VECTOR('',#1510,10.);
#425=VECTOR('',#1511,10.);
#426=VECTOR('',#1512,10.);
#427=VECTOR('',#1525,10.);
#428=VECTOR('',#1526,10.);
#429=VECTOR('',#1527,10.);
#430=VECTOR('',#1528,10.);
#431=VECTOR('',#1531,10.);
#432=VECTOR('',#1532,10.);
#433=VECTOR('',#1533,10.);
#434=VECTOR('',#1536,10.);
#435=VECTOR('',#1537,10.);
#436=VECTOR('',#1538,10.);
#437=VECTOR('',#1541,10.);
#438=VECTOR('',#1542,10.);
#439=VECTOR('',#1549,10.);
#440=VECTOR('',#1550,10.);
#441=VECTOR('',#1551,10.);
#442=VECTOR('',#1552,10.);
#443=VECTOR('',#1555,10.);
#444=VECTOR('',#1556,10.);
#445=VECTOR('',#1557,10.);
#446=VECTOR('',#1560,10.);
#447=VECTOR('',#1561,10.);
#448=VECTOR('',#1562,10.);
#449=VECTOR('',#1565,10.);
#450=VECTOR('',#1566,10.);
#451=VECTOR('',#1573,10.);
#452=VECTOR('',#1574,10.);
#453=VECTOR('',#1575,10.);
#454=VECTOR('',#1576,10.);
#455=VECTOR('',#1579,10.);
#456=VECTOR('',#1580,10.);
#457=VECTOR('',#1581,10.);
#458=VECTOR('',#1584,10.);
#459=VECTOR('',#1585,10.);
#460=VECTOR('',#1586,10.);
#461=VECTOR('',#1589,10.);
#462=VECTOR('',#1590,10.);
#463=VECTOR('',#1597,10.);
#464=VECTOR('',#1598,10.);
#465=VECTOR('',#1599,10.);
#466=VECTOR('',#1600,10.);
#467=VECTOR('',#1603,10.);
#468=VECTOR('',#1604,10.);
#469=VECTOR('',#1605,10.);
#470=VECTOR('',#1608,10.);
#471=VECTOR('',#1609,10.);
#472=VECTOR('',#1610,10.);
#473=VECTOR('',#1613,10.);
#474=VECTOR('',#1614,10.);
#475=VECTOR('',#1621,10.);
#476=VECTOR('',#1622,10.);
#477=VECTOR('',#1623,10.);
#478=VECTOR('',#1624,10.);
#479=VECTOR('',#1627,10.);
#480=VECTOR('',#1628,10.);
#481=VECTOR('',#1629,10.);
#482=VECTOR('',#1632,10.);
#483=VECTOR('',#1633,10.);
#484=VECTOR('',#1634,10.);
#485=VECTOR('',#1637,10.);
#486=VECTOR('',#1638,10.);
#487=VECTOR('',#1645,10.);
#488=VECTOR('',#1646,10.);
#489=VECTOR('',#1647,10.);
#490=VECTOR('',#1648,10.);
#491=VECTOR('',#1651,10.);
#492=VECTOR('',#1652,10.);
#493=VECTOR('',#1653,10.);
#494=VECTOR('',#1656,10.);
#495=VECTOR('',#1657,10.);
#496=VECTOR('',#1658,10.);
#497=VECTOR('',#1661,10.);
#498=VECTOR('',#1662,10.);
#499=VERTEX_POINT('',#1669);
#500=VERTEX_POINT('',#1670);
#501=VERTEX_POINT('',#1672);
#502=VERTEX_POINT('',#1674);
#503=VERTEX_POINT('',#1678);
#504=VERTEX_POINT('',#1679);
#505=VERTEX_POINT('',#1681);
#506=VERTEX_POINT('',#1683);
#507=VERTEX_POINT('',#1692);
#508=VERTEX_POINT('',#1693);
#509=VERTEX_POINT('',#1695);
#510=VERTEX_POINT('',#1697);
#511=VERTEX_POINT('',#1701);
#512=VERTEX_POINT('',#1702);
#513=VERTEX_POINT('',#1704);
#514=VERTEX_POINT('',#1706);
#515=VERTEX_POINT('',#1715);
#516=VERTEX_POINT('',#1716);
#517=VERTEX_POINT('',#1718);
#518=VERTEX_POINT('',#1720);
#519=VERTEX_POINT('',#1724);
#520=VERTEX_POINT('',#1725);
#521=VERTEX_POINT('',#1727);
#522=VERTEX_POINT('',#1729);
#523=VERTEX_POINT('',#1738);
#524=VERTEX_POINT('',#1739);
#525=VERTEX_POINT('',#1741);
#526=VERTEX_POINT('',#1743);
#527=VERTEX_POINT('',#1747);
#528=VERTEX_POINT('',#1749);
#529=VERTEX_POINT('',#1753);
#530=VERTEX_POINT('',#1755);
#531=VERTEX_POINT('',#1761);
#532=VERTEX_POINT('',#1762);
#533=VERTEX_POINT('',#1764);
#534=VERTEX_POINT('',#1766);
#535=VERTEX_POINT('',#1770);
#536=VERTEX_POINT('',#1771);
#537=VERTEX_POINT('',#1773);
#538=VERTEX_POINT('',#1775);
#539=VERTEX_POINT('',#1784);
#540=VERTEX_POINT('',#1785);
#541=VERTEX_POINT('',#1787);
#542=VERTEX_POINT('',#1789);
#543=VERTEX_POINT('',#1793);
#544=VERTEX_POINT('',#1795);
#545=VERTEX_POINT('',#1799);
#546=VERTEX_POINT('',#1801);
#547=VERTEX_POINT('',#1807);
#548=VERTEX_POINT('',#1809);
#549=VERTEX_POINT('',#1811);
#550=VERTEX_POINT('',#1813);
#551=VERTEX_POINT('',#1817);
#552=VERTEX_POINT('',#1819);
#553=VERTEX_POINT('',#1821);
#554=VERTEX_POINT('',#1823);
#555=VERTEX_POINT('',#1827);
#556=VERTEX_POINT('',#1829);
#557=VERTEX_POINT('',#1831);
#558=VERTEX_POINT('',#1833);
#559=VERTEX_POINT('',#1844);
#560=VERTEX_POINT('',#1846);
#561=VERTEX_POINT('',#1852);
#562=VERTEX_POINT('',#1854);
#563=VERTEX_POINT('',#1863);
#564=VERTEX_POINT('',#1864);
#565=VERTEX_POINT('',#1866);
#566=VERTEX_POINT('',#1868);
#567=VERTEX_POINT('',#1872);
#568=VERTEX_POINT('',#1874);
#569=VERTEX_POINT('',#1878);
#570=VERTEX_POINT('',#1880);
#571=VERTEX_POINT('',#1889);
#572=VERTEX_POINT('',#1890);
#573=VERTEX_POINT('',#1892);
#574=VERTEX_POINT('',#1894);
#575=VERTEX_POINT('',#1898);
#576=VERTEX_POINT('',#1900);
#577=VERTEX_POINT('',#1904);
#578=VERTEX_POINT('',#1906);
#579=VERTEX_POINT('',#1915);
#580=VERTEX_POINT('',#1916);
#581=VERTEX_POINT('',#1918);
#582=VERTEX_POINT('',#1920);
#583=VERTEX_POINT('',#1924);
#584=VERTEX_POINT('',#1926);
#585=VERTEX_POINT('',#1930);
#586=VERTEX_POINT('',#1932);
#587=VERTEX_POINT('',#1941);
#588=VERTEX_POINT('',#1942);
#589=VERTEX_POINT('',#1944);
#590=VERTEX_POINT('',#1946);
#591=VERTEX_POINT('',#1950);
#592=VERTEX_POINT('',#1952);
#593=VERTEX_POINT('',#1956);
#594=VERTEX_POINT('',#1958);
#595=VERTEX_POINT('',#1967);
#596=VERTEX_POINT('',#1968);
#597=VERTEX_POINT('',#1970);
#598=VERTEX_POINT('',#1972);
#599=VERTEX_POINT('',#1976);
#600=VERTEX_POINT('',#1978);
#601=VERTEX_POINT('',#1982);
#602=VERTEX_POINT('',#1984);
#603=VERTEX_POINT('',#1993);
#604=VERTEX_POINT('',#1994);
#605=VERTEX_POINT('',#1996);
#606=VERTEX_POINT('',#1998);
#607=VERTEX_POINT('',#2002);
#608=VERTEX_POINT('',#2004);
#609=VERTEX_POINT('',#2008);
#610=VERTEX_POINT('',#2010);
#611=EDGE_CURVE('',#499,#500,#179,.T.);
#612=EDGE_CURVE('',#501,#499,#180,.T.);
#613=EDGE_CURVE('',#501,#502,#181,.T.);
#614=EDGE_CURVE('',#500,#502,#182,.T.);
#615=EDGE_CURVE('',#503,#504,#183,.T.);
#616=EDGE_CURVE('',#503,#505,#184,.T.);
#617=EDGE_CURVE('',#505,#506,#185,.T.);
#618=EDGE_CURVE('',#504,#506,#186,.T.);
#619=EDGE_CURVE('',#500,#503,#187,.T.);
#620=EDGE_CURVE('',#502,#505,#188,.T.);
#621=EDGE_CURVE('',#506,#501,#189,.T.);
#622=EDGE_CURVE('',#507,#508,#190,.T.);
#623=EDGE_CURVE('',#509,#507,#191,.T.);
#624=EDGE_CURVE('',#509,#510,#192,.T.);
#625=EDGE_CURVE('',#508,#510,#193,.T.);
#626=EDGE_CURVE('',#511,#512,#194,.T.);
#627=EDGE_CURVE('',#511,#513,#195,.T.);
#628=EDGE_CURVE('',#513,#514,#196,.T.);
#629=EDGE_CURVE('',#512,#514,#197,.T.);
#630=EDGE_CURVE('',#508,#511,#198,.T.);
#631=EDGE_CURVE('',#510,#513,#199,.T.);
#632=EDGE_CURVE('',#514,#509,#200,.T.);
#633=EDGE_CURVE('',#515,#516,#201,.T.);
#634=EDGE_CURVE('',#517,#515,#202,.T.);
#635=EDGE_CURVE('',#517,#518,#203,.T.);
#636=EDGE_CURVE('',#516,#518,#204,.T.);
#637=EDGE_CURVE('',#519,#520,#205,.T.);
#638=EDGE_CURVE('',#519,#521,#206,.T.);
#639=EDGE_CURVE('',#521,#522,#207,.T.);
#640=EDGE_CURVE('',#520,#522,#208,.T.);
#641=EDGE_CURVE('',#516,#519,#209,.T.);
#642=EDGE_CURVE('',#518,#521,#210,.T.);
#643=EDGE_CURVE('',#522,#517,#211,.T.);
#644=EDGE_CURVE('',#523,#524,#212,.T.);
#645=EDGE_CURVE('',#523,#525,#213,.T.);
#646=EDGE_CURVE('',#525,#526,#214,.T.);
#647=EDGE_CURVE('',#524,#526,#215,.T.);
#648=EDGE_CURVE('',#527,#523,#216,.T.);
#649=EDGE_CURVE('',#527,#528,#217,.T.);
#650=EDGE_CURVE('',#528,#525,#218,.T.);
#651=EDGE_CURVE('',#529,#527,#219,.T.);
#652=EDGE_CURVE('',#530,#529,#220,.T.);
#653=EDGE_CURVE('',#530,#528,#221,.T.);
#654=EDGE_CURVE('',#526,#530,#222,.T.);
#655=EDGE_CURVE('',#531,#532,#223,.T.);
#656=EDGE_CURVE('',#533,#531,#224,.T.);
#657=EDGE_CURVE('',#533,#534,#225,.T.);
#658=EDGE_CURVE('',#532,#534,#226,.T.);
#659=EDGE_CURVE('',#535,#536,#227,.T.);
#660=EDGE_CURVE('',#535,#537,#228,.T.);
#661=EDGE_CURVE('',#537,#538,#229,.T.);
#662=EDGE_CURVE('',#536,#538,#230,.T.);
#663=EDGE_CURVE('',#532,#535,#231,.T.);
#664=EDGE_CURVE('',#534,#537,#232,.T.);
#665=EDGE_CURVE('',#538,#533,#233,.T.);
#666=EDGE_CURVE('',#539,#540,#234,.T.);
#667=EDGE_CURVE('',#539,#541,#235,.T.);
#668=EDGE_CURVE('',#541,#542,#236,.T.);
#669=EDGE_CURVE('',#540,#542,#237,.T.);
#670=EDGE_CURVE('',#543,#539,#238,.T.);
#671=EDGE_CURVE('',#543,#544,#239,.T.);
#672=EDGE_CURVE('',#544,#541,#240,.T.);
#673=EDGE_CURVE('',#545,#543,#241,.T.);
#674=EDGE_CURVE('',#546,#545,#242,.T.);
#675=EDGE_CURVE('',#546,#544,#243,.T.);
#676=EDGE_CURVE('',#542,#546,#244,.T.);
#677=EDGE_CURVE('',#547,#499,#245,.T.);
#678=EDGE_CURVE('',#547,#548,#246,.T.);
#679=EDGE_CURVE('',#549,#548,#247,.T.);
#680=EDGE_CURVE('',#550,#549,#248,.T.);
#681=EDGE_CURVE('',#504,#550,#249,.T.);
#682=EDGE_CURVE('',#551,#507,#250,.T.);
#683=EDGE_CURVE('',#551,#552,#251,.T.);
#684=EDGE_CURVE('',#553,#552,#252,.T.);
#685=EDGE_CURVE('',#554,#553,#253,.T.);
#686=EDGE_CURVE('',#512,#554,#254,.T.);
#687=EDGE_CURVE('',#555,#515,#255,.T.);
#688=EDGE_CURVE('',#555,#556,#256,.T.);
#689=EDGE_CURVE('',#557,#556,#257,.T.);
#690=EDGE_CURVE('',#558,#557,#258,.T.);
#691=EDGE_CURVE('',#540,#558,#259,.T.);
#692=EDGE_CURVE('',#520,#545,#260,.T.);
#693=EDGE_CURVE('',#555,#550,#27,.T.);
#694=EDGE_CURVE('',#556,#549,#28,.T.);
#695=EDGE_CURVE('',#551,#558,#29,.T.);
#696=EDGE_CURVE('',#552,#557,#30,.T.);
#697=EDGE_CURVE('',#559,#554,#31,.T.);
#698=EDGE_CURVE('',#560,#553,#32,.T.);
#699=EDGE_CURVE('',#559,#560,#261,.T.);
#700=EDGE_CURVE('',#536,#529,#262,.T.);
#701=EDGE_CURVE('',#559,#531,#263,.T.);
#702=EDGE_CURVE('',#561,#560,#264,.T.);
#703=EDGE_CURVE('',#562,#561,#265,.T.);
#704=EDGE_CURVE('',#524,#562,#266,.T.);
#705=EDGE_CURVE('',#547,#562,#33,.T.);
#706=EDGE_CURVE('',#548,#561,#34,.T.);
#707=EDGE_CURVE('',#563,#564,#267,.T.);
#708=EDGE_CURVE('',#563,#565,#268,.T.);
#709=EDGE_CURVE('',#566,#565,#269,.T.);
#710=EDGE_CURVE('',#564,#566,#270,.T.);
#711=EDGE_CURVE('',#564,#567,#271,.T.);
#712=EDGE_CURVE('',#568,#566,#272,.T.);
#713=EDGE_CURVE('',#567,#568,#273,.T.);
#714=EDGE_CURVE('',#567,#569,#274,.T.);
#715=EDGE_CURVE('',#570,#568,#275,.T.);
#716=EDGE_CURVE('',#569,#570,#276,.T.);
#717=EDGE_CURVE('',#569,#563,#277,.T.);
#718=EDGE_CURVE('',#565,#570,#278,.T.);
#719=EDGE_CURVE('',#571,#572,#279,.T.);
#720=EDGE_CURVE('',#571,#573,#280,.T.);
#721=EDGE_CURVE('',#574,#573,#281,.T.);
#722=EDGE_CURVE('',#572,#574,#282,.T.);
#723=EDGE_CURVE('',#572,#575,#283,.T.);
#724=EDGE_CURVE('',#576,#574,#284,.T.);
#725=EDGE_CURVE('',#575,#576,#285,.T.);
#726=EDGE_CURVE('',#575,#577,#286,.T.);
#727=EDGE_CURVE('',#578,#576,#287,.T.);
#728=EDGE_CURVE('',#577,#578,#288,.T.);
#729=EDGE_CURVE('',#577,#571,#289,.T.);
#730=EDGE_CURVE('',#573,#578,#290,.T.);
#731=EDGE_CURVE('',#579,#580,#291,.T.);
#732=EDGE_CURVE('',#580,#581,#292,.T.);
#733=EDGE_CURVE('',#582,#581,#293,.T.);
#734=EDGE_CURVE('',#579,#582,#294,.T.);
#735=EDGE_CURVE('',#583,#579,#295,.T.);
#736=EDGE_CURVE('',#584,#582,#296,.T.);
#737=EDGE_CURVE('',#583,#584,#297,.T.);
#738=EDGE_CURVE('',#585,#583,#298,.T.);
#739=EDGE_CURVE('',#586,#584,#299,.T.);
#740=EDGE_CURVE('',#585,#586,#300,.T.);
#741=EDGE_CURVE('',#580,#585,#301,.T.);
#742=EDGE_CURVE('',#581,#586,#302,.T.);
#743=EDGE_CURVE('',#587,#588,#303,.T.);
#744=EDGE_CURVE('',#587,#589,#304,.T.);
#745=EDGE_CURVE('',#590,#589,#305,.T.);
#746=EDGE_CURVE('',#588,#590,#306,.T.);
#747=EDGE_CURVE('',#588,#591,#307,.T.);
#748=EDGE_CURVE('',#592,#590,#308,.T.);
#749=EDGE_CURVE('',#591,#592,#309,.T.);
#750=EDGE_CURVE('',#591,#593,#310,.T.);
#751=EDGE_CURVE('',#594,#592,#311,.T.);
#752=EDGE_CURVE('',#593,#594,#312,.T.);
#753=EDGE_CURVE('',#593,#587,#313,.T.);
#754=EDGE_CURVE('',#589,#594,#314,.T.);
#755=EDGE_CURVE('',#595,#596,#315,.T.);
#756=EDGE_CURVE('',#596,#597,#316,.T.);
#757=EDGE_CURVE('',#598,#597,#317,.T.);
#758=EDGE_CURVE('',#595,#598,#318,.T.);
#759=EDGE_CURVE('',#599,#595,#319,.T.);
#760=EDGE_CURVE('',#600,#598,#320,.T.);
#761=EDGE_CURVE('',#599,#600,#321,.T.);
#762=EDGE_CURVE('',#601,#599,#322,.T.);
#763=EDGE_CURVE('',#602,#600,#323,.T.);
#764=EDGE_CURVE('',#601,#602,#324,.T.);
#765=EDGE_CURVE('',#596,#601,#325,.T.);
#766=EDGE_CURVE('',#597,#602,#326,.T.);
#767=EDGE_CURVE('',#603,#604,#327,.T.);
#768=EDGE_CURVE('',#603,#605,#328,.T.);
#769=EDGE_CURVE('',#606,#605,#329,.T.);
#770=EDGE_CURVE('',#604,#606,#330,.T.);
#771=EDGE_CURVE('',#604,#607,#331,.T.);
#772=EDGE_CURVE('',#608,#606,#332,.T.);
#773=EDGE_CURVE('',#607,#608,#333,.T.);
#774=EDGE_CURVE('',#607,#609,#334,.T.);
#775=EDGE_CURVE('',#610,#608,#335,.T.);
#776=EDGE_CURVE('',#609,#610,#336,.T.);
#777=EDGE_CURVE('',#609,#603,#337,.T.);
#778=EDGE_CURVE('',#605,#610,#338,.T.);
#779=ORIENTED_EDGE('',*,*,#611,.F.);
#780=ORIENTED_EDGE('',*,*,#612,.F.);
#781=ORIENTED_EDGE('',*,*,#613,.T.);
#782=ORIENTED_EDGE('',*,*,#614,.F.);
#783=ORIENTED_EDGE('',*,*,#615,.F.);
#784=ORIENTED_EDGE('',*,*,#616,.T.);
#785=ORIENTED_EDGE('',*,*,#617,.T.);
#786=ORIENTED_EDGE('',*,*,#618,.F.);
#787=ORIENTED_EDGE('',*,*,#619,.F.);
#788=ORIENTED_EDGE('',*,*,#614,.T.);
#789=ORIENTED_EDGE('',*,*,#620,.T.);
#790=ORIENTED_EDGE('',*,*,#616,.F.);
#791=ORIENTED_EDGE('',*,*,#620,.F.);
#792=ORIENTED_EDGE('',*,*,#613,.F.);
#793=ORIENTED_EDGE('',*,*,#621,.F.);
#794=ORIENTED_EDGE('',*,*,#617,.F.);
#795=ORIENTED_EDGE('',*,*,#622,.F.);
#796=ORIENTED_EDGE('',*,*,#623,.F.);
#797=ORIENTED_EDGE('',*,*,#624,.T.);
#798=ORIENTED_EDGE('',*,*,#625,.F.);
#799=ORIENTED_EDGE('',*,*,#626,.F.);
#800=ORIENTED_EDGE('',*,*,#627,.T.);
#801=ORIENTED_EDGE('',*,*,#628,.T.);
#802=ORIENTED_EDGE('',*,*,#629,.F.);
#803=ORIENTED_EDGE('',*,*,#630,.F.);
#804=ORIENTED_EDGE('',*,*,#625,.T.);
#805=ORIENTED_EDGE('',*,*,#631,.T.);
#806=ORIENTED_EDGE('',*,*,#627,.F.);
#807=ORIENTED_EDGE('',*,*,#631,.F.);
#808=ORIENTED_EDGE('',*,*,#624,.F.);
#809=ORIENTED_EDGE('',*,*,#632,.F.);
#810=ORIENTED_EDGE('',*,*,#628,.F.);
#811=ORIENTED_EDGE('',*,*,#633,.F.);
#812=ORIENTED_EDGE('',*,*,#634,.F.);
#813=ORIENTED_EDGE('',*,*,#635,.T.);
#814=ORIENTED_EDGE('',*,*,#636,.F.);
#815=ORIENTED_EDGE('',*,*,#637,.F.);
#816=ORIENTED_EDGE('',*,*,#638,.T.);
#817=ORIENTED_EDGE('',*,*,#639,.T.);
#818=ORIENTED_EDGE('',*,*,#640,.F.);
#819=ORIENTED_EDGE('',*,*,#641,.F.);
#820=ORIENTED_EDGE('',*,*,#636,.T.);
#821=ORIENTED_EDGE('',*,*,#642,.T.);
#822=ORIENTED_EDGE('',*,*,#638,.F.);
#823=ORIENTED_EDGE('',*,*,#642,.F.);
#824=ORIENTED_EDGE('',*,*,#635,.F.);
#825=ORIENTED_EDGE('',*,*,#643,.F.);
#826=ORIENTED_EDGE('',*,*,#639,.F.);
#827=ORIENTED_EDGE('',*,*,#644,.F.);
#828=ORIENTED_EDGE('',*,*,#645,.T.);
#829=ORIENTED_EDGE('',*,*,#646,.T.);
#830=ORIENTED_EDGE('',*,*,#647,.F.);
#831=ORIENTED_EDGE('',*,*,#648,.F.);
#832=ORIENTED_EDGE('',*,*,#649,.T.);
#833=ORIENTED_EDGE('',*,*,#650,.T.);
#834=ORIENTED_EDGE('',*,*,#645,.F.);
#835=ORIENTED_EDGE('',*,*,#651,.F.);
#836=ORIENTED_EDGE('',*,*,#652,.F.);
#837=ORIENTED_EDGE('',*,*,#653,.T.);
#838=ORIENTED_EDGE('',*,*,#649,.F.);
#839=ORIENTED_EDGE('',*,*,#653,.F.);
#840=ORIENTED_EDGE('',*,*,#654,.F.);
#841=ORIENTED_EDGE('',*,*,#646,.F.);
#842=ORIENTED_EDGE('',*,*,#650,.F.);
#843=ORIENTED_EDGE('',*,*,#655,.F.);
#844=ORIENTED_EDGE('',*,*,#656,.F.);
#845=ORIENTED_EDGE('',*,*,#657,.T.);
#846=ORIENTED_EDGE('',*,*,#658,.F.);
#847=ORIENTED_EDGE('',*,*,#659,.F.);
#848=ORIENTED_EDGE('',*,*,#660,.T.);
#849=ORIENTED_EDGE('',*,*,#661,.T.);
#850=ORIENTED_EDGE('',*,*,#662,.F.);
#851=ORIENTED_EDGE('',*,*,#663,.F.);
#852=ORIENTED_EDGE('',*,*,#658,.T.);
#853=ORIENTED_EDGE('',*,*,#664,.T.);
#854=ORIENTED_EDGE('',*,*,#660,.F.);
#855=ORIENTED_EDGE('',*,*,#664,.F.);
#856=ORIENTED_EDGE('',*,*,#657,.F.);
#857=ORIENTED_EDGE('',*,*,#665,.F.);
#858=ORIENTED_EDGE('',*,*,#661,.F.);
#859=ORIENTED_EDGE('',*,*,#666,.F.);
#860=ORIENTED_EDGE('',*,*,#667,.T.);
#861=ORIENTED_EDGE('',*,*,#668,.T.);
#862=ORIENTED_EDGE('',*,*,#669,.F.);
#863=ORIENTED_EDGE('',*,*,#670,.F.);
#864=ORIENTED_EDGE('',*,*,#671,.T.);
#865=ORIENTED_EDGE('',*,*,#672,.T.);
#866=ORIENTED_EDGE('',*,*,#667,.F.);
#867=ORIENTED_EDGE('',*,*,#673,.F.);
#868=ORIENTED_EDGE('',*,*,#674,.F.);
#869=ORIENTED_EDGE('',*,*,#675,.T.);
#870=ORIENTED_EDGE('',*,*,#671,.F.);
#871=ORIENTED_EDGE('',*,*,#675,.F.);
#872=ORIENTED_EDGE('',*,*,#676,.F.);
#873=ORIENTED_EDGE('',*,*,#668,.F.);
#874=ORIENTED_EDGE('',*,*,#672,.F.);
#875=ORIENTED_EDGE('',*,*,#618,.T.);
#876=ORIENTED_EDGE('',*,*,#621,.T.);
#877=ORIENTED_EDGE('',*,*,#612,.T.);
#878=ORIENTED_EDGE('',*,*,#677,.F.);
#879=ORIENTED_EDGE('',*,*,#678,.T.);
#880=ORIENTED_EDGE('',*,*,#679,.F.);
#881=ORIENTED_EDGE('',*,*,#680,.F.);
#882=ORIENTED_EDGE('',*,*,#681,.F.);
#883=ORIENTED_EDGE('',*,*,#629,.T.);
#884=ORIENTED_EDGE('',*,*,#632,.T.);
#885=ORIENTED_EDGE('',*,*,#623,.T.);
#886=ORIENTED_EDGE('',*,*,#682,.F.);
#887=ORIENTED_EDGE('',*,*,#683,.T.);
#888=ORIENTED_EDGE('',*,*,#684,.F.);
#889=ORIENTED_EDGE('',*,*,#685,.F.);
#890=ORIENTED_EDGE('',*,*,#686,.F.);
#891=ORIENTED_EDGE('',*,*,#640,.T.);
#892=ORIENTED_EDGE('',*,*,#643,.T.);
#893=ORIENTED_EDGE('',*,*,#634,.T.);
#894=ORIENTED_EDGE('',*,*,#687,.F.);
#895=ORIENTED_EDGE('',*,*,#688,.T.);
#896=ORIENTED_EDGE('',*,*,#689,.F.);
#897=ORIENTED_EDGE('',*,*,#690,.F.);
#898=ORIENTED_EDGE('',*,*,#691,.F.);
#899=ORIENTED_EDGE('',*,*,#669,.T.);
#900=ORIENTED_EDGE('',*,*,#676,.T.);
#901=ORIENTED_EDGE('',*,*,#674,.T.);
#902=ORIENTED_EDGE('',*,*,#692,.F.);
#903=ORIENTED_EDGE('',*,*,#693,.T.);
#904=ORIENTED_EDGE('',*,*,#680,.T.);
#905=ORIENTED_EDGE('',*,*,#694,.F.);
#906=ORIENTED_EDGE('',*,*,#688,.F.);
#907=ORIENTED_EDGE('',*,*,#695,.T.);
#908=ORIENTED_EDGE('',*,*,#690,.T.);
#909=ORIENTED_EDGE('',*,*,#696,.F.);
#910=ORIENTED_EDGE('',*,*,#683,.F.);
#911=ORIENTED_EDGE('',*,*,#697,.T.);
#912=ORIENTED_EDGE('',*,*,#685,.T.);
#913=ORIENTED_EDGE('',*,*,#698,.F.);
#914=ORIENTED_EDGE('',*,*,#699,.F.);
#915=ORIENTED_EDGE('',*,*,#652,.T.);
#916=ORIENTED_EDGE('',*,*,#700,.F.);
#917=ORIENTED_EDGE('',*,*,#662,.T.);
#918=ORIENTED_EDGE('',*,*,#665,.T.);
#919=ORIENTED_EDGE('',*,*,#656,.T.);
#920=ORIENTED_EDGE('',*,*,#701,.F.);
#921=ORIENTED_EDGE('',*,*,#699,.T.);
#922=ORIENTED_EDGE('',*,*,#702,.F.);
#923=ORIENTED_EDGE('',*,*,#703,.F.);
#924=ORIENTED_EDGE('',*,*,#704,.F.);
#925=ORIENTED_EDGE('',*,*,#647,.T.);
#926=ORIENTED_EDGE('',*,*,#654,.T.);
#927=ORIENTED_EDGE('',*,*,#705,.T.);
#928=ORIENTED_EDGE('',*,*,#703,.T.);
#929=ORIENTED_EDGE('',*,*,#706,.F.);
#930=ORIENTED_EDGE('',*,*,#678,.F.);
#931=ORIENTED_EDGE('',*,*,#706,.T.);
#932=ORIENTED_EDGE('',*,*,#702,.T.);
#933=ORIENTED_EDGE('',*,*,#698,.T.);
#934=ORIENTED_EDGE('',*,*,#684,.T.);
#935=ORIENTED_EDGE('',*,*,#696,.T.);
#936=ORIENTED_EDGE('',*,*,#689,.T.);
#937=ORIENTED_EDGE('',*,*,#694,.T.);
#938=ORIENTED_EDGE('',*,*,#679,.T.);
#939=ORIENTED_EDGE('',*,*,#615,.T.);
#940=ORIENTED_EDGE('',*,*,#681,.T.);
#941=ORIENTED_EDGE('',*,*,#693,.F.);
#942=ORIENTED_EDGE('',*,*,#687,.T.);
#943=ORIENTED_EDGE('',*,*,#633,.T.);
#944=ORIENTED_EDGE('',*,*,#641,.T.);
#945=ORIENTED_EDGE('',*,*,#637,.T.);
#946=ORIENTED_EDGE('',*,*,#692,.T.);
#947=ORIENTED_EDGE('',*,*,#673,.T.);
#948=ORIENTED_EDGE('',*,*,#670,.T.);
#949=ORIENTED_EDGE('',*,*,#666,.T.);
#950=ORIENTED_EDGE('',*,*,#691,.T.);
#951=ORIENTED_EDGE('',*,*,#695,.F.);
#952=ORIENTED_EDGE('',*,*,#682,.T.);
#953=ORIENTED_EDGE('',*,*,#622,.T.);
#954=ORIENTED_EDGE('',*,*,#630,.T.);
#955=ORIENTED_EDGE('',*,*,#626,.T.);
#956=ORIENTED_EDGE('',*,*,#686,.T.);
#957=ORIENTED_EDGE('',*,*,#697,.F.);
#958=ORIENTED_EDGE('',*,*,#701,.T.);
#959=ORIENTED_EDGE('',*,*,#655,.T.);
#960=ORIENTED_EDGE('',*,*,#663,.T.);
#961=ORIENTED_EDGE('',*,*,#659,.T.);
#962=ORIENTED_EDGE('',*,*,#700,.T.);
#963=ORIENTED_EDGE('',*,*,#651,.T.);
#964=ORIENTED_EDGE('',*,*,#648,.T.);
#965=ORIENTED_EDGE('',*,*,#644,.T.);
#966=ORIENTED_EDGE('',*,*,#704,.T.);
#967=ORIENTED_EDGE('',*,*,#705,.F.);
#968=ORIENTED_EDGE('',*,*,#677,.T.);
#969=ORIENTED_EDGE('',*,*,#611,.T.);
#970=ORIENTED_EDGE('',*,*,#619,.T.);
#971=ORIENTED_EDGE('',*,*,#707,.F.);
#972=ORIENTED_EDGE('',*,*,#708,.T.);
#973=ORIENTED_EDGE('',*,*,#709,.F.);
#974=ORIENTED_EDGE('',*,*,#710,.F.);
#975=ORIENTED_EDGE('',*,*,#711,.F.);
#976=ORIENTED_EDGE('',*,*,#710,.T.);
#977=ORIENTED_EDGE('',*,*,#712,.F.);
#978=ORIENTED_EDGE('',*,*,#713,.F.);
#979=ORIENTED_EDGE('',*,*,#714,.F.);
#980=ORIENTED_EDGE('',*,*,#713,.T.);
#981=ORIENTED_EDGE('',*,*,#715,.F.);
#982=ORIENTED_EDGE('',*,*,#716,.F.);
#983=ORIENTED_EDGE('',*,*,#717,.F.);
#984=ORIENTED_EDGE('',*,*,#716,.T.);
#985=ORIENTED_EDGE('',*,*,#718,.F.);
#986=ORIENTED_EDGE('',*,*,#708,.F.);
#987=ORIENTED_EDGE('',*,*,#718,.T.);
#988=ORIENTED_EDGE('',*,*,#715,.T.);
#989=ORIENTED_EDGE('',*,*,#712,.T.);
#990=ORIENTED_EDGE('',*,*,#709,.T.);
#991=ORIENTED_EDGE('',*,*,#717,.T.);
#992=ORIENTED_EDGE('',*,*,#707,.T.);
#993=ORIENTED_EDGE('',*,*,#711,.T.);
#994=ORIENTED_EDGE('',*,*,#714,.T.);
#995=ORIENTED_EDGE('',*,*,#719,.F.);
#996=ORIENTED_EDGE('',*,*,#720,.T.);
#997=ORIENTED_EDGE('',*,*,#721,.F.);
#998=ORIENTED_EDGE('',*,*,#722,.F.);
#999=ORIENTED_EDGE('',*,*,#723,.F.);
#1000=ORIENTED_EDGE('',*,*,#722,.T.);
#1001=ORIENTED_EDGE('',*,*,#724,.F.);
#1002=ORIENTED_EDGE('',*,*,#725,.F.);
#1003=ORIENTED_EDGE('',*,*,#726,.F.);
#1004=ORIENTED_EDGE('',*,*,#725,.T.);
#1005=ORIENTED_EDGE('',*,*,#727,.F.);
#1006=ORIENTED_EDGE('',*,*,#728,.F.);
#1007=ORIENTED_EDGE('',*,*,#729,.F.);
#1008=ORIENTED_EDGE('',*,*,#728,.T.);
#1009=ORIENTED_EDGE('',*,*,#730,.F.);
#1010=ORIENTED_EDGE('',*,*,#720,.F.);
#1011=ORIENTED_EDGE('',*,*,#730,.T.);
#1012=ORIENTED_EDGE('',*,*,#727,.T.);
#1013=ORIENTED_EDGE('',*,*,#724,.T.);
#1014=ORIENTED_EDGE('',*,*,#721,.T.);
#1015=ORIENTED_EDGE('',*,*,#729,.T.);
#1016=ORIENTED_EDGE('',*,*,#719,.T.);
#1017=ORIENTED_EDGE('',*,*,#723,.T.);
#1018=ORIENTED_EDGE('',*,*,#726,.T.);
#1019=ORIENTED_EDGE('',*,*,#731,.T.);
#1020=ORIENTED_EDGE('',*,*,#732,.T.);
#1021=ORIENTED_EDGE('',*,*,#733,.F.);
#1022=ORIENTED_EDGE('',*,*,#734,.F.);
#1023=ORIENTED_EDGE('',*,*,#735,.T.);
#1024=ORIENTED_EDGE('',*,*,#734,.T.);
#1025=ORIENTED_EDGE('',*,*,#736,.F.);
#1026=ORIENTED_EDGE('',*,*,#737,.F.);
#1027=ORIENTED_EDGE('',*,*,#738,.T.);
#1028=ORIENTED_EDGE('',*,*,#737,.T.);
#1029=ORIENTED_EDGE('',*,*,#739,.F.);
#1030=ORIENTED_EDGE('',*,*,#740,.F.);
#1031=ORIENTED_EDGE('',*,*,#741,.T.);
#1032=ORIENTED_EDGE('',*,*,#740,.T.);
#1033=ORIENTED_EDGE('',*,*,#742,.F.);
#1034=ORIENTED_EDGE('',*,*,#732,.F.);
#1035=ORIENTED_EDGE('',*,*,#742,.T.);
#1036=ORIENTED_EDGE('',*,*,#739,.T.);
#1037=ORIENTED_EDGE('',*,*,#736,.T.);
#1038=ORIENTED_EDGE('',*,*,#733,.T.);
#1039=ORIENTED_EDGE('',*,*,#741,.F.);
#1040=ORIENTED_EDGE('',*,*,#731,.F.);
#1041=ORIENTED_EDGE('',*,*,#735,.F.);
#1042=ORIENTED_EDGE('',*,*,#738,.F.);
#1043=ORIENTED_EDGE('',*,*,#743,.F.);
#1044=ORIENTED_EDGE('',*,*,#744,.T.);
#1045=ORIENTED_EDGE('',*,*,#745,.F.);
#1046=ORIENTED_EDGE('',*,*,#746,.F.);
#1047=ORIENTED_EDGE('',*,*,#747,.F.);
#1048=ORIENTED_EDGE('',*,*,#746,.T.);
#1049=ORIENTED_EDGE('',*,*,#748,.F.);
#1050=ORIENTED_EDGE('',*,*,#749,.F.);
#1051=ORIENTED_EDGE('',*,*,#750,.F.);
#1052=ORIENTED_EDGE('',*,*,#749,.T.);
#1053=ORIENTED_EDGE('',*,*,#751,.F.);
#1054=ORIENTED_EDGE('',*,*,#752,.F.);
#1055=ORIENTED_EDGE('',*,*,#753,.F.);
#1056=ORIENTED_EDGE('',*,*,#752,.T.);
#1057=ORIENTED_EDGE('',*,*,#754,.F.);
#1058=ORIENTED_EDGE('',*,*,#744,.F.);
#1059=ORIENTED_EDGE('',*,*,#754,.T.);
#1060=ORIENTED_EDGE('',*,*,#751,.T.);
#1061=ORIENTED_EDGE('',*,*,#748,.T.);
#1062=ORIENTED_EDGE('',*,*,#745,.T.);
#1063=ORIENTED_EDGE('',*,*,#753,.T.);
#1064=ORIENTED_EDGE('',*,*,#743,.T.);
#1065=ORIENTED_EDGE('',*,*,#747,.T.);
#1066=ORIENTED_EDGE('',*,*,#750,.T.);
#1067=ORIENTED_EDGE('',*,*,#755,.T.);
#1068=ORIENTED_EDGE('',*,*,#756,.T.);
#1069=ORIENTED_EDGE('',*,*,#757,.F.);
#1070=ORIENTED_EDGE('',*,*,#758,.F.);
#1071=ORIENTED_EDGE('',*,*,#759,.T.);
#1072=ORIENTED_EDGE('',*,*,#758,.T.);
#1073=ORIENTED_EDGE('',*,*,#760,.F.);
#1074=ORIENTED_EDGE('',*,*,#761,.F.);
#1075=ORIENTED_EDGE('',*,*,#762,.T.);
#1076=ORIENTED_EDGE('',*,*,#761,.T.);
#1077=ORIENTED_EDGE('',*,*,#763,.F.);
#1078=ORIENTED_EDGE('',*,*,#764,.F.);
#1079=ORIENTED_EDGE('',*,*,#765,.T.);
#1080=ORIENTED_EDGE('',*,*,#764,.T.);
#1081=ORIENTED_EDGE('',*,*,#766,.F.);
#1082=ORIENTED_EDGE('',*,*,#756,.F.);
#1083=ORIENTED_EDGE('',*,*,#766,.T.);
#1084=ORIENTED_EDGE('',*,*,#763,.T.);
#1085=ORIENTED_EDGE('',*,*,#760,.T.);
#1086=ORIENTED_EDGE('',*,*,#757,.T.);
#1087=ORIENTED_EDGE('',*,*,#765,.F.);
#1088=ORIENTED_EDGE('',*,*,#755,.F.);
#1089=ORIENTED_EDGE('',*,*,#759,.F.);
#1090=ORIENTED_EDGE('',*,*,#762,.F.);
#1091=ORIENTED_EDGE('',*,*,#767,.F.);
#1092=ORIENTED_EDGE('',*,*,#768,.T.);
#1093=ORIENTED_EDGE('',*,*,#769,.F.);
#1094=ORIENTED_EDGE('',*,*,#770,.F.);
#1095=ORIENTED_EDGE('',*,*,#771,.F.);
#1096=ORIENTED_EDGE('',*,*,#770,.T.);
#1097=ORIENTED_EDGE('',*,*,#772,.F.);
#1098=ORIENTED_EDGE('',*,*,#773,.F.);
#1099=ORIENTED_EDGE('',*,*,#774,.F.);
#1100=ORIENTED_EDGE('',*,*,#773,.T.);
#1101=ORIENTED_EDGE('',*,*,#775,.F.);
#1102=ORIENTED_EDGE('',*,*,#776,.F.);
#1103=ORIENTED_EDGE('',*,*,#777,.F.);
#1104=ORIENTED_EDGE('',*,*,#776,.T.);
#1105=ORIENTED_EDGE('',*,*,#778,.F.);
#1106=ORIENTED_EDGE('',*,*,#768,.F.);
#1107=ORIENTED_EDGE('',*,*,#778,.T.);
#1108=ORIENTED_EDGE('',*,*,#775,.T.);
#1109=ORIENTED_EDGE('',*,*,#772,.T.);
#1110=ORIENTED_EDGE('',*,*,#769,.T.);
#1111=ORIENTED_EDGE('',*,*,#777,.T.);
#1112=ORIENTED_EDGE('',*,*,#767,.T.);
#1113=ORIENTED_EDGE('',*,*,#771,.T.);
#1114=ORIENTED_EDGE('',*,*,#774,.T.);
#1115=PLANE('',#1271);
#1116=PLANE('',#1272);
#1117=PLANE('',#1273);
#1118=PLANE('',#1274);
#1119=PLANE('',#1275);
#1120=PLANE('',#1276);
#1121=PLANE('',#1277);
#1122=PLANE('',#1278);
#1123=PLANE('',#1279);
#1124=PLANE('',#1280);
#1125=PLANE('',#1281);
#1126=PLANE('',#1282);
#1127=PLANE('',#1283);
#1128=PLANE('',#1284);
#1129=PLANE('',#1285);
#1130=PLANE('',#1286);
#1131=PLANE('',#1287);
#1132=PLANE('',#1288);
#1133=PLANE('',#1289);
#1134=PLANE('',#1290);
#1135=PLANE('',#1291);
#1136=PLANE('',#1292);
#1137=PLANE('',#1293);
#1138=PLANE('',#1294);
#1139=PLANE('',#1295);
#1140=PLANE('',#1296);
#1141=PLANE('',#1297);
#1142=PLANE('',#1307);
#1143=PLANE('',#1311);
#1144=PLANE('',#1312);
#1145=PLANE('',#1313);
#1146=PLANE('',#1314);
#1147=PLANE('',#1315);
#1148=PLANE('',#1316);
#1149=PLANE('',#1317);
#1150=PLANE('',#1318);
#1151=PLANE('',#1319);
#1152=PLANE('',#1320);
#1153=PLANE('',#1321);
#1154=PLANE('',#1322);
#1155=PLANE('',#1323);
#1156=PLANE('',#1324);
#1157=PLANE('',#1325);
#1158=PLANE('',#1326);
#1159=PLANE('',#1327);
#1160=PLANE('',#1328);
#1161=PLANE('',#1329);
#1162=PLANE('',#1330);
#1163=PLANE('',#1331);
#1164=PLANE('',#1332);
#1165=PLANE('',#1333);
#1166=PLANE('',#1334);
#1167=PLANE('',#1335);
#1168=PLANE('',#1336);
#1169=PLANE('',#1337);
#1170=PLANE('',#1338);
#1171=PLANE('',#1339);
#1172=PLANE('',#1340);
#1173=PLANE('',#1341);
#1174=PLANE('',#1342);
#1175=PLANE('',#1343);
#1176=PLANE('',#1344);
#1177=PLANE('',#1345);
#1178=PLANE('',#1346);
#1179=PLANE('',#1347);
#1180=PLANE('',#1348);
#1181=ADVANCED_FACE('',(#39),#1115,.F.);
#1182=ADVANCED_FACE('',(#40),#1116,.F.);
#1183=ADVANCED_FACE('',(#41),#1117,.F.);
#1184=ADVANCED_FACE('',(#42),#1118,.F.);
#1185=ADVANCED_FACE('',(#43),#1119,.F.);
#1186=ADVANCED_FACE('',(#44),#1120,.F.);
#1187=ADVANCED_FACE('',(#45),#1121,.F.);
#1188=ADVANCED_FACE('',(#46),#1122,.F.);
#1189=ADVANCED_FACE('',(#47),#1123,.F.);
#1190=ADVANCED_FACE('',(#48),#1124,.F.);
#1191=ADVANCED_FACE('',(#49),#1125,.F.);
#1192=ADVANCED_FACE('',(#50),#1126,.F.);
#1193=ADVANCED_FACE('',(#51),#1127,.F.);
#1194=ADVANCED_FACE('',(#52),#1128,.F.);
#1195=ADVANCED_FACE('',(#53),#1129,.F.);
#1196=ADVANCED_FACE('',(#54),#1130,.F.);
#1197=ADVANCED_FACE('',(#55),#1131,.F.);
#1198=ADVANCED_FACE('',(#56),#1132,.F.);
#1199=ADVANCED_FACE('',(#57),#1133,.F.);
#1200=ADVANCED_FACE('',(#58),#1134,.F.);
#1201=ADVANCED_FACE('',(#59),#1135,.F.);
#1202=ADVANCED_FACE('',(#60),#1136,.F.);
#1203=ADVANCED_FACE('',(#61),#1137,.F.);
#1204=ADVANCED_FACE('',(#62),#1138,.F.);
#1205=ADVANCED_FACE('',(#63),#1139,.T.);
#1206=ADVANCED_FACE('',(#64),#1140,.T.);
#1207=ADVANCED_FACE('',(#65),#1141,.T.);
#1208=ADVANCED_FACE('',(#66),#35,.T.);
#1209=ADVANCED_FACE('',(#67),#36,.T.);
#1210=ADVANCED_FACE('',(#68),#37,.T.);
#1211=ADVANCED_FACE('',(#69),#1142,.T.);
#1212=ADVANCED_FACE('',(#70),#38,.T.);
#1213=ADVANCED_FACE('',(#71),#1143,.T.);
#1214=ADVANCED_FACE('',(#72),#1144,.F.);
#1215=ADVANCED_FACE('',(#73),#1145,.T.);
#1216=ADVANCED_FACE('',(#74),#1146,.T.);
#1217=ADVANCED_FACE('',(#75),#1147,.T.);
#1218=ADVANCED_FACE('',(#76),#1148,.T.);
#1219=ADVANCED_FACE('',(#77),#1149,.T.);
#1220=ADVANCED_FACE('',(#78),#1150,.F.);
#1221=ADVANCED_FACE('',(#79),#1151,.T.);
#1222=ADVANCED_FACE('',(#80),#1152,.T.);
#1223=ADVANCED_FACE('',(#81),#1153,.T.);
#1224=ADVANCED_FACE('',(#82),#1154,.T.);
#1225=ADVANCED_FACE('',(#83),#1155,.T.);
#1226=ADVANCED_FACE('',(#84),#1156,.F.);
#1227=ADVANCED_FACE('',(#85),#1157,.T.);
#1228=ADVANCED_FACE('',(#86),#1158,.T.);
#1229=ADVANCED_FACE('',(#87),#1159,.T.);
#1230=ADVANCED_FACE('',(#88),#1160,.T.);
#1231=ADVANCED_FACE('',(#89),#1161,.T.);
#1232=ADVANCED_FACE('',(#90),#1162,.F.);
#1233=ADVANCED_FACE('',(#91),#1163,.T.);
#1234=ADVANCED_FACE('',(#92),#1164,.T.);
#1235=ADVANCED_FACE('',(#93),#1165,.T.);
#1236=ADVANCED_FACE('',(#94),#1166,.T.);
#1237=ADVANCED_FACE('',(#95),#1167,.T.);
#1238=ADVANCED_FACE('',(#96),#1168,.F.);
#1239=ADVANCED_FACE('',(#97),#1169,.T.);
#1240=ADVANCED_FACE('',(#98),#1170,.T.);
#1241=ADVANCED_FACE('',(#99),#1171,.T.);
#1242=ADVANCED_FACE('',(#100),#1172,.T.);
#1243=ADVANCED_FACE('',(#101),#1173,.T.);
#1244=ADVANCED_FACE('',(#102),#1174,.F.);
#1245=ADVANCED_FACE('',(#103),#1175,.T.);
#1246=ADVANCED_FACE('',(#104),#1176,.T.);
#1247=ADVANCED_FACE('',(#105),#1177,.T.);
#1248=ADVANCED_FACE('',(#106),#1178,.T.);
#1249=ADVANCED_FACE('',(#107),#1179,.T.);
#1250=ADVANCED_FACE('',(#108),#1180,.F.);
#1251=CLOSED_SHELL('',(#1181,#1182,#1183,#1184,#1185,#1186,#1187,#1188,
#1189,#1190,#1191,#1192,#1193,#1194,#1195,#1196,#1197,#1198,#1199,#1200,
#1201,#1202,#1203,#1204,#1205,#1206,#1207,#1208,#1209,#1210,#1211,#1212,
#1213,#1214));
#1252=CLOSED_SHELL('',(#1215,#1216,#1217,#1218,#1219,#1220));
#1253=CLOSED_SHELL('',(#1221,#1222,#1223,#1224,#1225,#1226));
#1254=CLOSED_SHELL('',(#1227,#1228,#1229,#1230,#1231,#1232));
#1255=CLOSED_SHELL('',(#1233,#1234,#1235,#1236,#1237,#1238));
#1256=CLOSED_SHELL('',(#1239,#1240,#1241,#1242,#1243,#1244));
#1257=CLOSED_SHELL('',(#1245,#1246,#1247,#1248,#1249,#1250));
#1258=DERIVED_UNIT_ELEMENT(#1260,1.);
#1259=DERIVED_UNIT_ELEMENT(#2023,-3.);
#1260=(
MASS_UNIT()
NAMED_UNIT(*)
SI_UNIT(.KILO.,.GRAM.)
);
#1261=DERIVED_UNIT((#1258,#1259));
#1262=MEASURE_REPRESENTATION_ITEM('density measure',
POSITIVE_RATIO_MEASURE(7850.),#1261);
#1263=PROPERTY_DEFINITION_REPRESENTATION(#1268,#1265);
#1264=PROPERTY_DEFINITION_REPRESENTATION(#1269,#1266);
#1265=REPRESENTATION('material name',(#1267),#2020);
#1266=REPRESENTATION('density',(#1262),#2020);
#1267=DESCRIPTIVE_REPRESENTATION_ITEM('\X2\94A2\X0\','\X2\94A2\X0\');
#1268=PROPERTY_DEFINITION('material property','material name',#2030);
#1269=PROPERTY_DEFINITION('material property','density of part',#2030);
#1270=AXIS2_PLACEMENT_3D('',#1667,#1349,#1350);
#1271=AXIS2_PLACEMENT_3D('',#1668,#1351,#1352);
#1272=AXIS2_PLACEMENT_3D('',#1677,#1357,#1358);
#1273=AXIS2_PLACEMENT_3D('',#1686,#1363,#1364);
#1274=AXIS2_PLACEMENT_3D('',#1689,#1367,#1368);
#1275=AXIS2_PLACEMENT_3D('',#1691,#1370,#1371);
#1276=AXIS2_PLACEMENT_3D('',#1700,#1376,#1377);
#1277=AXIS2_PLACEMENT_3D('',#1709,#1382,#1383);
#1278=AXIS2_PLACEMENT_3D('',#1712,#1386,#1387);
#1279=AXIS2_PLACEMENT_3D('',#1714,#1389,#1390);
#1280=AXIS2_PLACEMENT_3D('',#1723,#1395,#1396);
#1281=AXIS2_PLACEMENT_3D('',#1732,#1401,#1402);
#1282=AXIS2_PLACEMENT_3D('',#1735,#1405,#1406);
#1283=AXIS2_PLACEMENT_3D('',#1737,#1408,#1409);
#1284=AXIS2_PLACEMENT_3D('',#1746,#1414,#1415);
#1285=AXIS2_PLACEMENT_3D('',#1752,#1419,#1420);
#1286=AXIS2_PLACEMENT_3D('',#1758,#1424,#1425);
#1287=AXIS2_PLACEMENT_3D('',#1760,#1427,#1428);
#1288=AXIS2_PLACEMENT_3D('',#1769,#1433,#1434);
#1289=AXIS2_PLACEMENT_3D('',#1778,#1439,#1440);
#1290=AXIS2_PLACEMENT_3D('',#1781,#1443,#1444);
#1291=AXIS2_PLACEMENT_3D('',#1783,#1446,#1447);
#1292=AXIS2_PLACEMENT_3D('',#1792,#1452,#1453);
#1293=AXIS2_PLACEMENT_3D('',#1798,#1457,#1458);
#1294=AXIS2_PLACEMENT_3D('',#1804,#1462,#1463);
#1295=AXIS2_PLACEMENT_3D('',#1806,#1465,#1466);
#1296=AXIS2_PLACEMENT_3D('',#1816,#1472,#1473);
#1297=AXIS2_PLACEMENT_3D('',#1826,#1479,#1480);
#1298=AXIS2_PLACEMENT_3D('',#1837,#1487,#1488);
#1299=AXIS2_PLACEMENT_3D('',#1838,#1489,#1490);
#1300=AXIS2_PLACEMENT_3D('',#1839,#1491,#1492);
#1301=AXIS2_PLACEMENT_3D('',#1840,#1493,#1494);
#1302=AXIS2_PLACEMENT_3D('',#1841,#1495,#1496);
#1303=AXIS2_PLACEMENT_3D('',#1842,#1497,#1498);
#1304=AXIS2_PLACEMENT_3D('',#1843,#1499,#1500);
#1305=AXIS2_PLACEMENT_3D('',#1845,#1501,#1502);
#1306=AXIS2_PLACEMENT_3D('',#1847,#1503,#1504);
#1307=AXIS2_PLACEMENT_3D('',#1849,#1506,#1507);
#1308=AXIS2_PLACEMENT_3D('',#1857,#1513,#1514);
#1309=AXIS2_PLACEMENT_3D('',#1858,#1515,#1516);
#1310=AXIS2_PLACEMENT_3D('',#1859,#1517,#1518);
#1311=AXIS2_PLACEMENT_3D('',#1860,#1519,#1520);
#1312=AXIS2_PLACEMENT_3D('',#1861,#1521,#1522);
#1313=AXIS2_PLACEMENT_3D('',#1862,#1523,#1524);
#1314=AXIS2_PLACEMENT_3D('',#1871,#1529,#1530);
#1315=AXIS2_PLACEMENT_3D('',#1877,#1534,#1535);
#1316=AXIS2_PLACEMENT_3D('',#1883,#1539,#1540);
#1317=AXIS2_PLACEMENT_3D('',#1886,#1543,#1544);
#1318=AXIS2_PLACEMENT_3D('',#1887,#1545,#1546);
#1319=AXIS2_PLACEMENT_3D('',#1888,#1547,#1548);
#1320=AXIS2_PLACEMENT_3D('',#1897,#1553,#1554);
#1321=AXIS2_PLACEMENT_3D('',#1903,#1558,#1559);
#1322=AXIS2_PLACEMENT_3D('',#1909,#1563,#1564);
#1323=AXIS2_PLACEMENT_3D('',#1912,#1567,#1568);
#1324=AXIS2_PLACEMENT_3D('',#1913,#1569,#1570);
#1325=AXIS2_PLACEMENT_3D('',#1914,#1571,#1572);
#1326=AXIS2_PLACEMENT_3D('',#1923,#1577,#1578);
#1327=AXIS2_PLACEMENT_3D('',#1929,#1582,#1583);
#1328=AXIS2_PLACEMENT_3D('',#1935,#1587,#1588);
#1329=AXIS2_PLACEMENT_3D('',#1938,#1591,#1592);
#1330=AXIS2_PLACEMENT_3D('',#1939,#1593,#1594);
#1331=AXIS2_PLACEMENT_3D('',#1940,#1595,#1596);
#1332=AXIS2_PLACEMENT_3D('',#1949,#1601,#1602);
#1333=AXIS2_PLACEMENT_3D('',#1955,#1606,#1607);
#1334=AXIS2_PLACEMENT_3D('',#1961,#1611,#1612);
#1335=AXIS2_PLACEMENT_3D('',#1964,#1615,#1616);
#1336=AXIS2_PLACEMENT_3D('',#1965,#1617,#1618);
#1337=AXIS2_PLACEMENT_3D('',#1966,#1619,#1620);
#1338=AXIS2_PLACEMENT_3D('',#1975,#1625,#1626);
#1339=AXIS2_PLACEMENT_3D('',#1981,#1630,#1631);
#1340=AXIS2_PLACEMENT_3D('',#1987,#1635,#1636);
#1341=AXIS2_PLACEMENT_3D('',#1990,#1639,#1640);
#1342=AXIS2_PLACEMENT_3D('',#1991,#1641,#1642);
#1343=AXIS2_PLACEMENT_3D('',#1992,#1643,#1644);
#1344=AXIS2_PLACEMENT_3D('',#2001,#1649,#1650);
#1345=AXIS2_PLACEMENT_3D('',#2007,#1654,#1655);
#1346=AXIS2_PLACEMENT_3D('',#2013,#1659,#1660);
#1347=AXIS2_PLACEMENT_3D('',#2016,#1663,#1664);
#1348=AXIS2_PLACEMENT_3D('',#2017,#1665,#1666);
#1349=DIRECTION('axis',(0.,0.,1.));
#1350=DIRECTION('refdir',(1.,0.,0.));
#1351=DIRECTION('center_axis',(-1.,0.,0.));
#1352=DIRECTION('ref_axis',(0.,-1.,0.));
#1353=DIRECTION('',(0.,-1.,0.));
#1354=DIRECTION('',(0.,0.,-1.));
#1355=DIRECTION('',(0.,-1.,0.));
#1356=DIRECTION('',(0.,0.,1.));
#1357=DIRECTION('center_axis',(1.,2.72113486427735E-16,0.));
#1358=DIRECTION('ref_axis',(-2.72113486427735E-16,1.,0.));
#1359=DIRECTION('',(-2.72113486427735E-16,1.,0.));
#1360=DIRECTION('',(0.,0.,1.));
#1361=DIRECTION('',(-2.72113486427735E-16,1.,0.));
#1362=DIRECTION('',(0.,0.,1.));
#1363=DIRECTION('center_axis',(0.,-1.,0.));
#1364=DIRECTION('ref_axis',(1.,0.,0.));
#1365=DIRECTION('',(1.,0.,0.));
#1366=DIRECTION('',(1.,0.,0.));
#1367=DIRECTION('center_axis',(0.,0.,1.));
#1368=DIRECTION('ref_axis',(1.,0.,0.));
#1369=DIRECTION('',(-1.,0.,0.));
#1370=DIRECTION('center_axis',(1.,-6.12255344462402E-16,0.));
#1371=DIRECTION('ref_axis',(6.12255344462402E-16,1.,0.));
#1372=DIRECTION('',(6.12255344462402E-16,1.,0.));
#1373=DIRECTION('',(0.,0.,-1.));
#1374=DIRECTION('',(6.12255344462402E-16,1.,0.));
#1375=DIRECTION('',(0.,0.,1.));
#1376=DIRECTION('center_axis',(-1.,0.,0.));
#1377=DIRECTION('ref_axis',(0.,-1.,0.));
#1378=DIRECTION('',(0.,-1.,0.));
#1379=DIRECTION('',(0.,0.,1.));
#1380=DIRECTION('',(0.,-1.,0.));
#1381=DIRECTION('',(0.,0.,1.));
#1382=DIRECTION('center_axis',(0.,1.,0.));
#1383=DIRECTION('ref_axis',(-1.,0.,0.));
#1384=DIRECTION('',(-1.,0.,0.));
#1385=DIRECTION('',(-1.,0.,0.));
#1386=DIRECTION('center_axis',(0.,0.,1.));
#1387=DIRECTION('ref_axis',(1.,0.,0.));
#1388=DIRECTION('',(1.,0.,0.));
#1389=DIRECTION('center_axis',(0.,1.,0.));
#1390=DIRECTION('ref_axis',(-1.,0.,0.));
#1391=DIRECTION('',(-1.,0.,0.));
#1392=DIRECTION('',(0.,0.,-1.));
#1393=DIRECTION('',(-1.,0.,0.));
#1394=DIRECTION('',(0.,0.,1.));
#1395=DIRECTION('center_axis',(0.,-1.,0.));
#1396=DIRECTION('ref_axis',(1.,0.,0.));
#1397=DIRECTION('',(1.,0.,0.));
#1398=DIRECTION('',(0.,0.,1.));
#1399=DIRECTION('',(1.,0.,0.));
#1400=DIRECTION('',(0.,0.,1.));
#1401=DIRECTION('center_axis',(-1.,0.,0.));
#1402=DIRECTION('ref_axis',(0.,-1.,0.));
#1403=DIRECTION('',(0.,-1.,0.));
#1404=DIRECTION('',(0.,-1.,0.));
#1405=DIRECTION('center_axis',(0.,0.,1.));
#1406=DIRECTION('ref_axis',(1.,0.,0.));
#1407=DIRECTION('',(0.,1.,0.));
#1408=DIRECTION('center_axis',(0.,1.,0.));
#1409=DIRECTION('ref_axis',(-1.,0.,0.));
#1410=DIRECTION('',(-1.,0.,0.));
#1411=DIRECTION('',(0.,0.,1.));
#1412=DIRECTION('',(-1.,0.,0.));
#1413=DIRECTION('',(0.,0.,1.));
#1414=DIRECTION('center_axis',(1.,0.,0.));
#1415=DIRECTION('ref_axis',(0.,1.,0.));
#1416=DIRECTION('',(0.,1.,0.));
#1417=DIRECTION('',(0.,0.,1.));
#1418=DIRECTION('',(0.,1.,0.));
#1419=DIRECTION('center_axis',(3.15404268359419E-16,-1.,0.));
#1420=DIRECTION('ref_axis',(1.,3.15404268359419E-16,0.));
#1421=DIRECTION('',(1.,3.15404268359419E-16,0.));
#1422=DIRECTION('',(0.,0.,-1.));
#1423=DIRECTION('',(1.,3.15404268359419E-16,0.));
#1424=DIRECTION('center_axis',(0.,0.,1.));
#1425=DIRECTION('ref_axis',(1.,0.,0.));
#1426=DIRECTION('',(0.,-1.,0.));
#1427=DIRECTION('center_axis',(0.,-1.,0.));
#1428=DIRECTION('ref_axis',(1.,0.,0.));
#1429=DIRECTION('',(1.,0.,0.));
#1430=DIRECTION('',(0.,0.,-1.));
#1431=DIRECTION('',(1.,0.,0.));
#1432=DIRECTION('',(0.,0.,1.));
#1433=DIRECTION('center_axis',(0.,1.,0.));
#1434=DIRECTION('ref_axis',(-1.,0.,0.));
#1435=DIRECTION('',(-1.,0.,0.));
#1436=DIRECTION('',(0.,0.,1.));
#1437=DIRECTION('',(-1.,0.,0.));
#1438=DIRECTION('',(0.,0.,1.));
#1439=DIRECTION('center_axis',(1.,0.,0.));
#1440=DIRECTION('ref_axis',(0.,1.,0.));
#1441=DIRECTION('',(0.,1.,0.));
#1442=DIRECTION('',(0.,1.,0.));
#1443=DIRECTION('center_axis',(0.,0.,1.));
#1444=DIRECTION('ref_axis',(1.,0.,0.));
#1445=DIRECTION('',(0.,-1.,0.));
#1446=DIRECTION('center_axis',(0.,-1.,0.));
#1447=DIRECTION('ref_axis',(1.,0.,0.));
#1448=DIRECTION('',(1.,0.,0.));
#1449=DIRECTION('',(0.,0.,1.));
#1450=DIRECTION('',(1.,0.,0.));
#1451=DIRECTION('',(0.,0.,1.));
#1452=DIRECTION('center_axis',(-1.,0.,0.));
#1453=DIRECTION('ref_axis',(0.,-1.,0.));
#1454=DIRECTION('',(0.,-1.,0.));
#1455=DIRECTION('',(0.,0.,1.));
#1456=DIRECTION('',(0.,-1.,0.));
#1457=DIRECTION('center_axis',(0.,1.,0.));
#1458=DIRECTION('ref_axis',(-1.,0.,0.));
#1459=DIRECTION('',(-1.,0.,0.));
#1460=DIRECTION('',(0.,0.,-1.));
#1461=DIRECTION('',(-1.,0.,0.));
#1462=DIRECTION('center_axis',(0.,0.,1.));
#1463=DIRECTION('ref_axis',(1.,0.,0.));
#1464=DIRECTION('',(0.,1.,0.));
#1465=DIRECTION('center_axis',(0.,1.,0.));
#1466=DIRECTION('ref_axis',(-1.,0.,0.));
#1467=DIRECTION('',(1.,0.,0.));
#1468=DIRECTION('',(0.,0.,1.));
#1469=DIRECTION('',(-1.,0.,0.));
#1470=DIRECTION('',(0.,0.,1.));
#1471=DIRECTION('',(1.,0.,0.));
#1472=DIRECTION('center_axis',(0.,-1.,0.));
#1473=DIRECTION('ref_axis',(1.,0.,0.));
#1474=DIRECTION('',(-1.,0.,0.));
#1475=DIRECTION('',(0.,0.,1.));
#1476=DIRECTION('',(1.,0.,0.));
#1477=DIRECTION('',(0.,0.,1.));
#1478=DIRECTION('',(-1.,0.,0.));
#1479=DIRECTION('center_axis',(1.,0.,0.));
#1480=DIRECTION('ref_axis',(0.,1.,0.));
#1481=DIRECTION('',(0.,-1.,0.));
#1482=DIRECTION('',(0.,0.,1.));
#1483=DIRECTION('',(0.,1.,0.));
#1484=DIRECTION('',(0.,0.,1.));
#1485=DIRECTION('',(0.,-1.,0.));
#1486=DIRECTION('',(0.,-1.,0.));
#1487=DIRECTION('center_axis',(0.,0.,1.));
#1488=DIRECTION('ref_axis',(1.,1.38777878078144E-15,0.));
#1489=DIRECTION('center_axis',(0.,0.,1.));
#1490=DIRECTION('ref_axis',(1.,1.38777878078144E-15,0.));
#1491=DIRECTION('center_axis',(0.,0.,1.));
#1492=DIRECTION('ref_axis',(1.,1.38777878078144E-15,0.));
#1493=DIRECTION('center_axis',(0.,0.,1.));
#1494=DIRECTION('ref_axis',(0.,-1.,0.));
#1495=DIRECTION('center_axis',(0.,0.,1.));
#1496=DIRECTION('ref_axis',(0.,-1.,0.));
#1497=DIRECTION('center_axis',(0.,0.,1.));
#1498=DIRECTION('ref_axis',(0.,-1.,0.));
#1499=DIRECTION('center_axis',(0.,0.,1.));
#1500=DIRECTION('ref_axis',(-1.,0.,0.));
#1501=DIRECTION('center_axis',(0.,0.,1.));
#1502=DIRECTION('ref_axis',(-1.,0.,0.));
#1503=DIRECTION('center_axis',(0.,0.,1.));
#1504=DIRECTION('ref_axis',(-1.,0.,0.));
#1505=DIRECTION('',(0.,0.,1.));
#1506=DIRECTION('center_axis',(-1.,0.,0.));
#1507=DIRECTION('ref_axis',(0.,-1.,0.));
#1508=DIRECTION('',(0.,1.,0.));
#1509=DIRECTION('',(0.,1.,0.));
#1510=DIRECTION('',(0.,-1.,0.));
#1511=DIRECTION('',(0.,0.,1.));
#1512=DIRECTION('',(0.,1.,0.));
#1513=DIRECTION('center_axis',(0.,0.,1.));
#1514=DIRECTION('ref_axis',(0.,1.,0.));
#1515=DIRECTION('center_axis',(0.,0.,1.));
#1516=DIRECTION('ref_axis',(0.,1.,0.));
#1517=DIRECTION('center_axis',(0.,0.,1.));
#1518=DIRECTION('ref_axis',(0.,1.,0.));
#1519=DIRECTION('center_axis',(0.,0.,1.));
#1520=DIRECTION('ref_axis',(1.,0.,0.));
#1521=DIRECTION('center_axis',(0.,0.,1.));
#1522=DIRECTION('ref_axis',(1.,0.,0.));
#1523=DIRECTION('center_axis',(-1.,0.,0.));
#1524=DIRECTION('ref_axis',(0.,-1.,0.));
#1525=DIRECTION('',(0.,1.,0.));
#1526=DIRECTION('',(0.,0.,1.));
#1527=DIRECTION('',(0.,-1.,0.));
#1528=DIRECTION('',(0.,0.,1.));
#1529=DIRECTION('center_axis',(0.,1.,0.));
#1530=DIRECTION('ref_axis',(-1.,0.,0.));
#1531=DIRECTION('',(1.,0.,0.));
#1532=DIRECTION('',(-1.,0.,0.));
#1533=DIRECTION('',(0.,0.,1.));
#1534=DIRECTION('center_axis',(1.,2.72113486427735E-16,0.));
#1535=DIRECTION('ref_axis',(-2.72113486427735E-16,1.,0.));
#1536=DIRECTION('',(2.72113486427735E-16,-1.,0.));
#1537=DIRECTION('',(-2.72113486427735E-16,1.,0.));
#1538=DIRECTION('',(0.,0.,1.));
#1539=DIRECTION('center_axis',(0.,-1.,0.));
#1540=DIRECTION('ref_axis',(1.,0.,0.));
#1541=DIRECTION('',(-1.,0.,0.));
#1542=DIRECTION('',(1.,0.,0.));
#1543=DIRECTION('center_axis',(0.,0.,1.));
#1544=DIRECTION('ref_axis',(1.,0.,0.));
#1545=DIRECTION('center_axis',(0.,0.,1.));
#1546=DIRECTION('ref_axis',(1.,0.,0.));
#1547=DIRECTION('center_axis',(-1.,0.,0.));
#1548=DIRECTION('ref_axis',(0.,-1.,0.));
#1549=DIRECTION('',(0.,1.,0.));
#1550=DIRECTION('',(0.,0.,1.));
#1551=DIRECTION('',(0.,-1.,0.));
#1552=DIRECTION('',(0.,0.,1.));
#1553=DIRECTION('center_axis',(0.,1.,0.));
#1554=DIRECTION('ref_axis',(-1.,0.,0.));
#1555=DIRECTION('',(1.,0.,0.));
#1556=DIRECTION('',(-1.,0.,0.));
#1557=DIRECTION('',(0.,0.,1.));
#1558=DIRECTION('center_axis',(1.,-6.12255344462402E-16,0.));
#1559=DIRECTION('ref_axis',(6.12255344462402E-16,1.,0.));
#1560=DIRECTION('',(-6.12255344462402E-16,-1.,0.));
#1561=DIRECTION('',(6.12255344462402E-16,1.,0.));
#1562=DIRECTION('',(0.,0.,1.));
#1563=DIRECTION('center_axis',(0.,-1.,0.));
#1564=DIRECTION('ref_axis',(1.,0.,0.));
#1565=DIRECTION('',(-1.,0.,0.));
#1566=DIRECTION('',(1.,0.,0.));
#1567=DIRECTION('center_axis',(0.,0.,1.));
#1568=DIRECTION('ref_axis',(1.,0.,0.));
#1569=DIRECTION('center_axis',(0.,0.,1.));
#1570=DIRECTION('ref_axis',(1.,0.,0.));
#1571=DIRECTION('center_axis',(3.15404268359419E-16,-1.,0.));
#1572=DIRECTION('ref_axis',(1.,3.15404268359419E-16,0.));
#1573=DIRECTION('',(1.,3.15404268359419E-16,0.));
#1574=DIRECTION('',(0.,0.,1.));
#1575=DIRECTION('',(1.,3.15404268359419E-16,0.));
#1576=DIRECTION('',(0.,0.,1.));
#1577=DIRECTION('center_axis',(-1.,0.,0.));
#1578=DIRECTION('ref_axis',(0.,-1.,0.));
#1579=DIRECTION('',(0.,-1.,0.));
#1580=DIRECTION('',(0.,-1.,0.));
#1581=DIRECTION('',(0.,0.,1.));
#1582=DIRECTION('center_axis',(0.,1.,0.));
#1583=DIRECTION('ref_axis',(-1.,0.,0.));
#1584=DIRECTION('',(-1.,0.,0.));
#1585=DIRECTION('',(-1.,0.,0.));
#1586=DIRECTION('',(0.,0.,1.));
#1587=DIRECTION('center_axis',(1.,0.,0.));
#1588=DIRECTION('ref_axis',(0.,1.,0.));
#1589=DIRECTION('',(0.,1.,0.));
#1590=DIRECTION('',(0.,1.,0.));
#1591=DIRECTION('center_axis',(0.,0.,1.));
#1592=DIRECTION('ref_axis',(1.,0.,0.));
#1593=DIRECTION('center_axis',(0.,0.,1.));
#1594=DIRECTION('ref_axis',(1.,0.,0.));
#1595=DIRECTION('center_axis',(-1.,0.,0.));
#1596=DIRECTION('ref_axis',(0.,-1.,0.));
#1597=DIRECTION('',(0.,1.,0.));
#1598=DIRECTION('',(0.,0.,1.));
#1599=DIRECTION('',(0.,-1.,0.));
#1600=DIRECTION('',(0.,0.,1.));
#1601=DIRECTION('center_axis',(0.,1.,0.));
#1602=DIRECTION('ref_axis',(-1.,0.,0.));
#1603=DIRECTION('',(1.,0.,0.));
#1604=DIRECTION('',(-1.,0.,0.));
#1605=DIRECTION('',(0.,0.,1.));
#1606=DIRECTION('center_axis',(1.,0.,0.));
#1607=DIRECTION('ref_axis',(0.,1.,0.));
#1608=DIRECTION('',(0.,-1.,0.));
#1609=DIRECTION('',(0.,1.,0.));
#1610=DIRECTION('',(0.,0.,1.));
#1611=DIRECTION('center_axis',(0.,-1.,0.));
#1612=DIRECTION('ref_axis',(1.,0.,0.));
#1613=DIRECTION('',(-1.,0.,0.));
#1614=DIRECTION('',(1.,0.,0.));
#1615=DIRECTION('center_axis',(0.,0.,1.));
#1616=DIRECTION('ref_axis',(1.,0.,0.));
#1617=DIRECTION('center_axis',(0.,0.,1.));
#1618=DIRECTION('ref_axis',(1.,0.,0.));
#1619=DIRECTION('center_axis',(0.,-1.,0.));
#1620=DIRECTION('ref_axis',(1.,0.,0.));
#1621=DIRECTION('',(1.,0.,0.));
#1622=DIRECTION('',(0.,0.,1.));
#1623=DIRECTION('',(1.,0.,0.));
#1624=DIRECTION('',(0.,0.,1.));
#1625=DIRECTION('center_axis',(-1.,0.,0.));
#1626=DIRECTION('ref_axis',(0.,-1.,0.));
#1627=DIRECTION('',(0.,-1.,0.));
#1628=DIRECTION('',(0.,-1.,0.));
#1629=DIRECTION('',(0.,0.,1.));
#1630=DIRECTION('center_axis',(0.,1.,0.));
#1631=DIRECTION('ref_axis',(-1.,0.,0.));
#1632=DIRECTION('',(-1.,0.,0.));
#1633=DIRECTION('',(-1.,0.,0.));
#1634=DIRECTION('',(0.,0.,1.));
#1635=DIRECTION('center_axis',(1.,0.,0.));
#1636=DIRECTION('ref_axis',(0.,1.,0.));
#1637=DIRECTION('',(0.,1.,0.));
#1638=DIRECTION('',(0.,1.,0.));
#1639=DIRECTION('center_axis',(0.,0.,1.));
#1640=DIRECTION('ref_axis',(1.,0.,0.));
#1641=DIRECTION('center_axis',(0.,0.,1.));
#1642=DIRECTION('ref_axis',(1.,0.,0.));
#1643=DIRECTION('center_axis',(-1.,0.,0.));
#1644=DIRECTION('ref_axis',(0.,-1.,0.));
#1645=DIRECTION('',(0.,1.,0.));
#1646=DIRECTION('',(0.,0.,1.));
#1647=DIRECTION('',(0.,-1.,0.));
#1648=DIRECTION('',(0.,0.,1.));
#1649=DIRECTION('center_axis',(0.,1.,0.));
#1650=DIRECTION('ref_axis',(-1.,0.,0.));
#1651=DIRECTION('',(1.,0.,0.));
#1652=DIRECTION('',(-1.,0.,0.));
#1653=DIRECTION('',(0.,0.,1.));
#1654=DIRECTION('center_axis',(1.,0.,0.));
#1655=DIRECTION('ref_axis',(0.,1.,0.));
#1656=DIRECTION('',(0.,-1.,0.));
#1657=DIRECTION('',(0.,1.,0.));
#1658=DIRECTION('',(0.,0.,1.));
#1659=DIRECTION('center_axis',(0.,-1.,0.));
#1660=DIRECTION('ref_axis',(1.,0.,0.));
#1661=DIRECTION('',(-1.,0.,0.));
#1662=DIRECTION('',(1.,0.,0.));
#1663=DIRECTION('center_axis',(0.,0.,1.));
#1664=DIRECTION('ref_axis',(1.,0.,0.));
#1665=DIRECTION('center_axis',(0.,0.,1.));
#1666=DIRECTION('ref_axis',(1.,0.,0.));
#1667=CARTESIAN_POINT('',(0.,0.,0.));
#1668=CARTESIAN_POINT('Origin',(-0.1,0.55,0.));
#1669=CARTESIAN_POINT('',(-0.1,0.55,0.));
#1670=CARTESIAN_POINT('',(-0.1,0.175,0.));
#1671=CARTESIAN_POINT('',(-0.1,0.275,0.));
#1672=CARTESIAN_POINT('',(-0.1,0.55,0.12));
#1673=CARTESIAN_POINT('',(-0.1,0.55,0.));
#1674=CARTESIAN_POINT('',(-0.1,0.175,0.12));
#1675=CARTESIAN_POINT('',(-0.1,0.175,0.12));
#1676=CARTESIAN_POINT('',(-0.1,0.175,0.));
#1677=CARTESIAN_POINT('Origin',(0.1,0.175,0.));
#1678=CARTESIAN_POINT('',(0.1,0.175,0.));
#1679=CARTESIAN_POINT('',(0.1,0.55,0.));
#1680=CARTESIAN_POINT('',(0.1,0.0875000000000001,0.));
#1681=CARTESIAN_POINT('',(0.1,0.175,0.12));
#1682=CARTESIAN_POINT('',(0.1,0.175,0.));
#1683=CARTESIAN_POINT('',(0.1,0.55,0.12));
#1684=CARTESIAN_POINT('',(0.1,0.685,0.12));
#1685=CARTESIAN_POINT('',(0.1,0.55,0.));
#1686=CARTESIAN_POINT('Origin',(-0.1,0.175,0.));
#1687=CARTESIAN_POINT('',(-0.05,0.175,0.));
#1688=CARTESIAN_POINT('',(0.1,0.175,0.12));
#1689=CARTESIAN_POINT('Origin',(6.93889390390723E-17,0.3625,0.12));
#1690=CARTESIAN_POINT('',(0.25,0.55,0.12));
#1691=CARTESIAN_POINT('Origin',(0.0999999999999999,-0.55,0.));
#1692=CARTESIAN_POINT('',(0.1,-0.55,0.));
#1693=CARTESIAN_POINT('',(0.1,-0.175,0.));
#1694=CARTESIAN_POINT('',(0.1,-0.275,0.));
#1695=CARTESIAN_POINT('',(0.1,-0.55,0.12));
#1696=CARTESIAN_POINT('',(0.1,-0.55,0.));
#1697=CARTESIAN_POINT('',(0.1,-0.175,0.12));
#1698=CARTESIAN_POINT('',(0.1,-0.175,0.12));
#1699=CARTESIAN_POINT('',(0.1,-0.175,0.));
#1700=CARTESIAN_POINT('Origin',(-0.1,-0.175,0.));
#1701=CARTESIAN_POINT('',(-0.1,-0.175,0.));
#1702=CARTESIAN_POINT('',(-0.1,-0.55,0.));
#1703=CARTESIAN_POINT('',(-0.1,-0.0875000000000001,0.));
#1704=CARTESIAN_POINT('',(-0.1,-0.175,0.12));
#1705=CARTESIAN_POINT('',(-0.1,-0.175,0.));
#1706=CARTESIAN_POINT('',(-0.1,-0.55,0.12));
#1707=CARTESIAN_POINT('',(-0.1,-0.685,0.12));
#1708=CARTESIAN_POINT('',(-0.1,-0.55,0.));
#1709=CARTESIAN_POINT('Origin',(0.1,-0.175,0.));
#1710=CARTESIAN_POINT('',(0.0500000000000001,-0.175,0.));
#1711=CARTESIAN_POINT('',(-0.1,-0.175,0.12));
#1712=CARTESIAN_POINT('Origin',(6.93889390390723E-17,-0.3625,0.12));
#1713=CARTESIAN_POINT('',(-0.25,-0.55,0.12));
#1714=CARTESIAN_POINT('Origin',(0.55,0.325,0.));
#1715=CARTESIAN_POINT('',(0.55,0.325,0.));
#1716=CARTESIAN_POINT('',(0.32,0.325,0.));
#1717=CARTESIAN_POINT('',(0.275,0.325,0.));
#1718=CARTESIAN_POINT('',(0.55,0.325,0.12));
#1719=CARTESIAN_POINT('',(0.55,0.325,0.));
#1720=CARTESIAN_POINT('',(0.32,0.325,0.12));
#1721=CARTESIAN_POINT('',(0.32,0.325,0.12));
#1722=CARTESIAN_POINT('',(0.32,0.325,0.));
#1723=CARTESIAN_POINT('Origin',(0.32,0.175,0.));
#1724=CARTESIAN_POINT('',(0.32,0.175,0.));
#1725=CARTESIAN_POINT('',(0.55,0.175,0.));
#1726=CARTESIAN_POINT('',(0.16,0.175,0.));
#1727=CARTESIAN_POINT('',(0.32,0.175,0.12));
#1728=CARTESIAN_POINT('',(0.32,0.175,0.));
#1729=CARTESIAN_POINT('',(0.55,0.175,0.12));
#1730=CARTESIAN_POINT('',(0.65,0.175,0.12));
#1731=CARTESIAN_POINT('',(0.55,0.175,0.));
#1732=CARTESIAN_POINT('Origin',(0.32,0.325,0.));
#1733=CARTESIAN_POINT('',(0.32,0.1625,0.));
#1734=CARTESIAN_POINT('',(0.32,0.175,0.12));
#1735=CARTESIAN_POINT('Origin',(0.435,0.25,0.12));
#1736=CARTESIAN_POINT('',(0.55,-0.125,0.12));
#1737=CARTESIAN_POINT('Origin',(-0.32,0.325,0.));
#1738=CARTESIAN_POINT('',(-0.32,0.325,0.));
#1739=CARTESIAN_POINT('',(-0.55,0.325,0.));
#1740=CARTESIAN_POINT('',(-0.16,0.325,0.));
#1741=CARTESIAN_POINT('',(-0.32,0.325,0.12));
#1742=CARTESIAN_POINT('',(-0.32,0.325,0.));
#1743=CARTESIAN_POINT('',(-0.55,0.325,0.12));
#1744=CARTESIAN_POINT('',(-0.32,0.325,0.12));
#1745=CARTESIAN_POINT('',(-0.55,0.325,0.));
#1746=CARTESIAN_POINT('Origin',(-0.32,0.175,0.));
#1747=CARTESIAN_POINT('',(-0.32,0.175,0.));
#1748=CARTESIAN_POINT('',(-0.32,0.0875,0.));
#1749=CARTESIAN_POINT('',(-0.32,0.175,0.12));
#1750=CARTESIAN_POINT('',(-0.32,0.175,0.));
#1751=CARTESIAN_POINT('',(-0.32,0.175,0.12));
#1752=CARTESIAN_POINT('Origin',(-0.55,0.175,0.));
#1753=CARTESIAN_POINT('',(-0.55,0.175,0.));
#1754=CARTESIAN_POINT('',(-0.275,0.175,0.));
#1755=CARTESIAN_POINT('',(-0.55,0.175,0.12));
#1756=CARTESIAN_POINT('',(-0.55,0.175,0.));
#1757=CARTESIAN_POINT('',(-0.65,0.175,0.12));
#1758=CARTESIAN_POINT('Origin',(-0.435,0.25,0.12));
#1759=CARTESIAN_POINT('',(-0.55,0.375,0.12));
#1760=CARTESIAN_POINT('Origin',(-0.55,-0.325,0.));
#1761=CARTESIAN_POINT('',(-0.55,-0.325,0.));
#1762=CARTESIAN_POINT('',(-0.32,-0.325,0.));
#1763=CARTESIAN_POINT('',(-0.275,-0.325,0.));
#1764=CARTESIAN_POINT('',(-0.55,-0.325,0.12));
#1765=CARTESIAN_POINT('',(-0.55,-0.325,0.));
#1766=CARTESIAN_POINT('',(-0.32,-0.325,0.12));
#1767=CARTESIAN_POINT('',(-0.32,-0.325,0.12));
#1768=CARTESIAN_POINT('',(-0.32,-0.325,0.));
#1769=CARTESIAN_POINT('Origin',(-0.32,-0.175,0.));
#1770=CARTESIAN_POINT('',(-0.32,-0.175,0.));
#1771=CARTESIAN_POINT('',(-0.55,-0.175,0.));
#1772=CARTESIAN_POINT('',(-0.16,-0.175,0.));
#1773=CARTESIAN_POINT('',(-0.32,-0.175,0.12));
#1774=CARTESIAN_POINT('',(-0.32,-0.175,0.));
#1775=CARTESIAN_POINT('',(-0.55,-0.175,0.12));
#1776=CARTESIAN_POINT('',(-0.65,-0.175,0.12));
#1777=CARTESIAN_POINT('',(-0.55,-0.175,0.));
#1778=CARTESIAN_POINT('Origin',(-0.32,-0.325,0.));
#1779=CARTESIAN_POINT('',(-0.32,-0.1625,0.));
#1780=CARTESIAN_POINT('',(-0.32,-0.175,0.12));
#1781=CARTESIAN_POINT('Origin',(-0.435,-0.25,0.12));
#1782=CARTESIAN_POINT('',(-0.55,0.125,0.12));
#1783=CARTESIAN_POINT('Origin',(0.32,-0.325,0.));
#1784=CARTESIAN_POINT('',(0.32,-0.325,0.));
#1785=CARTESIAN_POINT('',(0.55,-0.325,0.));
#1786=CARTESIAN_POINT('',(0.16,-0.325,0.));
#1787=CARTESIAN_POINT('',(0.32,-0.325,0.12));
#1788=CARTESIAN_POINT('',(0.32,-0.325,0.));
#1789=CARTESIAN_POINT('',(0.55,-0.325,0.12));
#1790=CARTESIAN_POINT('',(0.32,-0.325,0.12));
#1791=CARTESIAN_POINT('',(0.55,-0.325,0.));
#1792=CARTESIAN_POINT('Origin',(0.32,-0.175,0.));
#1793=CARTESIAN_POINT('',(0.32,-0.175,0.));
#1794=CARTESIAN_POINT('',(0.32,-0.0875000000000001,0.));
#1795=CARTESIAN_POINT('',(0.32,-0.175,0.12));
#1796=CARTESIAN_POINT('',(0.32,-0.175,0.));
#1797=CARTESIAN_POINT('',(0.32,-0.175,0.12));
#1798=CARTESIAN_POINT('Origin',(0.55,-0.175,0.));
#1799=CARTESIAN_POINT('',(0.55,-0.175,0.));
#1800=CARTESIAN_POINT('',(0.275,-0.175,0.));
#1801=CARTESIAN_POINT('',(0.55,-0.175,0.12));
#1802=CARTESIAN_POINT('',(0.55,-0.175,0.));
#1803=CARTESIAN_POINT('',(0.65,-0.175,0.12));
#1804=CARTESIAN_POINT('Origin',(0.435,-0.25,0.12));
#1805=CARTESIAN_POINT('',(0.55,-0.375,0.12));
#1806=CARTESIAN_POINT('Origin',(0.5,0.55,0.));
#1807=CARTESIAN_POINT('',(-0.5,0.55,0.));
#1808=CARTESIAN_POINT('',(-0.5,0.55,0.));
#1809=CARTESIAN_POINT('',(-0.5,0.55,0.4));
#1810=CARTESIAN_POINT('',(-0.5,0.55,0.));
#1811=CARTESIAN_POINT('',(0.5,0.55,0.4));
#1812=CARTESIAN_POINT('',(-0.5,0.55,0.4));
#1813=CARTESIAN_POINT('',(0.5,0.55,0.));
#1814=CARTESIAN_POINT('',(0.5,0.55,0.));
#1815=CARTESIAN_POINT('',(-0.5,0.55,0.));
#1816=CARTESIAN_POINT('Origin',(-0.5,-0.55,0.));
#1817=CARTESIAN_POINT('',(0.5,-0.55,0.));
#1818=CARTESIAN_POINT('',(0.5,-0.55,0.));
#1819=CARTESIAN_POINT('',(0.5,-0.55,0.4));
#1820=CARTESIAN_POINT('',(0.5,-0.55,0.));
#1821=CARTESIAN_POINT('',(-0.5,-0.55,0.4));
#1822=CARTESIAN_POINT('',(0.5,-0.55,0.4));
#1823=CARTESIAN_POINT('',(-0.5,-0.55,0.));
#1824=CARTESIAN_POINT('',(-0.5,-0.55,0.));
#1825=CARTESIAN_POINT('',(0.5,-0.55,0.));
#1826=CARTESIAN_POINT('Origin',(0.55,-0.5,0.));
#1827=CARTESIAN_POINT('',(0.55,0.5,0.));
#1828=CARTESIAN_POINT('',(0.55,0.5,0.));
#1829=CARTESIAN_POINT('',(0.55,0.5,0.4));
#1830=CARTESIAN_POINT('',(0.55,0.5,0.));
#1831=CARTESIAN_POINT('',(0.55,-0.5,0.4));
#1832=CARTESIAN_POINT('',(0.55,0.5,0.4));
#1833=CARTESIAN_POINT('',(0.55,-0.5,0.));
#1834=CARTESIAN_POINT('',(0.55,-0.5,0.));
#1835=CARTESIAN_POINT('',(0.55,0.5,0.));
#1836=CARTESIAN_POINT('',(0.55,0.5,0.));
#1837=CARTESIAN_POINT('Origin',(0.5,0.5,0.));
#1838=CARTESIAN_POINT('Origin',(0.5,0.5,0.));
#1839=CARTESIAN_POINT('Origin',(0.5,0.5,0.4));
#1840=CARTESIAN_POINT('Origin',(0.5,-0.5,0.));
#1841=CARTESIAN_POINT('Origin',(0.5,-0.5,0.));
#1842=CARTESIAN_POINT('Origin',(0.5,-0.5,0.4));
#1843=CARTESIAN_POINT('Origin',(-0.5,-0.5,0.));
#1844=CARTESIAN_POINT('',(-0.55,-0.5,0.));
#1845=CARTESIAN_POINT('Origin',(-0.5,-0.5,0.));
#1846=CARTESIAN_POINT('',(-0.55,-0.5,0.4));
#1847=CARTESIAN_POINT('Origin',(-0.5,-0.5,0.4));
#1848=CARTESIAN_POINT('',(-0.55,-0.5,0.));
#1849=CARTESIAN_POINT('Origin',(-0.55,0.5,0.));
#1850=CARTESIAN_POINT('',(-0.55,-0.5,0.));
#1851=CARTESIAN_POINT('',(-0.55,-0.5,0.));
#1852=CARTESIAN_POINT('',(-0.55,0.5,0.4));
#1853=CARTESIAN_POINT('',(-0.55,-0.5,0.4));
#1854=CARTESIAN_POINT('',(-0.55,0.5,0.));
#1855=CARTESIAN_POINT('',(-0.55,0.5,0.));
#1856=CARTESIAN_POINT('',(-0.55,-0.5,0.));
#1857=CARTESIAN_POINT('Origin',(-0.5,0.5,0.));
#1858=CARTESIAN_POINT('Origin',(-0.5,0.5,0.));
#1859=CARTESIAN_POINT('Origin',(-0.5,0.5,0.4));
#1860=CARTESIAN_POINT('Origin',(0.,0.,0.4));
#1861=CARTESIAN_POINT('Origin',(0.,0.,0.));
#1862=CARTESIAN_POINT('Origin',(-0.1,0.685,0.));
#1863=CARTESIAN_POINT('',(-0.1,0.175,0.));
#1864=CARTESIAN_POINT('',(-0.1,0.685,0.));
#1865=CARTESIAN_POINT('',(-0.1,0.175,0.));
#1866=CARTESIAN_POINT('',(-0.1,0.175,0.12));
#1867=CARTESIAN_POINT('',(-0.1,0.175,0.));
#1868=CARTESIAN_POINT('',(-0.1,0.685,0.12));
#1869=CARTESIAN_POINT('',(-0.1,0.175,0.12));
#1870=CARTESIAN_POINT('',(-0.1,0.685,0.));
#1871=CARTESIAN_POINT('Origin',(0.1,0.685,0.));
#1872=CARTESIAN_POINT('',(0.1,0.685,0.));
#1873=CARTESIAN_POINT('',(-0.1,0.685,0.));
#1874=CARTESIAN_POINT('',(0.1,0.685,0.12));
#1875=CARTESIAN_POINT('',(-0.1,0.685,0.12));
#1876=CARTESIAN_POINT('',(0.1,0.685,0.));
#1877=CARTESIAN_POINT('Origin',(0.1,0.175,0.));
#1878=CARTESIAN_POINT('',(0.1,0.175,0.));
#1879=CARTESIAN_POINT('',(0.1,0.685,0.));
#1880=CARTESIAN_POINT('',(0.1,0.175,0.12));
#1881=CARTESIAN_POINT('',(0.1,0.685,0.12));
#1882=CARTESIAN_POINT('',(0.1,0.175,0.));
#1883=CARTESIAN_POINT('Origin',(-0.1,0.175,0.));
#1884=CARTESIAN_POINT('',(0.1,0.175,0.));
#1885=CARTESIAN_POINT('',(0.1,0.175,0.12));
#1886=CARTESIAN_POINT('Origin',(6.93889390390723E-17,0.43,0.12));
#1887=CARTESIAN_POINT('Origin',(6.93889390390723E-17,0.43,0.));
#1888=CARTESIAN_POINT('Origin',(-0.1,-0.175,0.));
#1889=CARTESIAN_POINT('',(-0.1,-0.685,0.));
#1890=CARTESIAN_POINT('',(-0.1,-0.175,0.));
#1891=CARTESIAN_POINT('',(-0.1,-0.685,0.));
#1892=CARTESIAN_POINT('',(-0.1,-0.685,0.12));
#1893=CARTESIAN_POINT('',(-0.1,-0.685,0.));
#1894=CARTESIAN_POINT('',(-0.1,-0.175,0.12));
#1895=CARTESIAN_POINT('',(-0.1,-0.685,0.12));
#1896=CARTESIAN_POINT('',(-0.1,-0.175,0.));
#1897=CARTESIAN_POINT('Origin',(0.1,-0.175,0.));
#1898=CARTESIAN_POINT('',(0.1,-0.175,0.));
#1899=CARTESIAN_POINT('',(-0.1,-0.175,0.));
#1900=CARTESIAN_POINT('',(0.1,-0.175,0.12));
#1901=CARTESIAN_POINT('',(-0.1,-0.175,0.12));
#1902=CARTESIAN_POINT('',(0.1,-0.175,0.));
#1903=CARTESIAN_POINT('Origin',(0.0999999999999998,-0.685,0.));
#1904=CARTESIAN_POINT('',(0.0999999999999998,-0.685,0.));
#1905=CARTESIAN_POINT('',(0.1,-0.175,0.));
#1906=CARTESIAN_POINT('',(0.0999999999999998,-0.685,0.12));
#1907=CARTESIAN_POINT('',(0.1,-0.175,0.12));
#1908=CARTESIAN_POINT('',(0.0999999999999998,-0.685,0.));
#1909=CARTESIAN_POINT('Origin',(-0.1,-0.685,0.));
#1910=CARTESIAN_POINT('',(0.0999999999999998,-0.685,0.));
#1911=CARTESIAN_POINT('',(0.0999999999999998,-0.685,0.12));
#1912=CARTESIAN_POINT('Origin',(6.93889390390723E-17,-0.43,0.12));
#1913=CARTESIAN_POINT('Origin',(6.93889390390723E-17,-0.43,0.));
#1914=CARTESIAN_POINT('Origin',(-0.65,0.175,0.));
#1915=CARTESIAN_POINT('',(-0.65,0.175,0.));
#1916=CARTESIAN_POINT('',(-0.32,0.175,0.));
#1917=CARTESIAN_POINT('',(-0.65,0.175,0.));
#1918=CARTESIAN_POINT('',(-0.32,0.175,0.12));
#1919=CARTESIAN_POINT('',(-0.32,0.175,0.));
#1920=CARTESIAN_POINT('',(-0.65,0.175,0.12));
#1921=CARTESIAN_POINT('',(-0.65,0.175,0.12));
#1922=CARTESIAN_POINT('',(-0.65,0.175,0.));
#1923=CARTESIAN_POINT('Origin',(-0.65,0.325,0.));
#1924=CARTESIAN_POINT('',(-0.65,0.325,0.));
#1925=CARTESIAN_POINT('',(-0.65,0.325,0.));
#1926=CARTESIAN_POINT('',(-0.65,0.325,0.12));
#1927=CARTESIAN_POINT('',(-0.65,0.325,0.12));
#1928=CARTESIAN_POINT('',(-0.65,0.325,0.));
#1929=CARTESIAN_POINT('Origin',(-0.32,0.325,0.));
#1930=CARTESIAN_POINT('',(-0.32,0.325,0.));
#1931=CARTESIAN_POINT('',(-0.32,0.325,0.));
#1932=CARTESIAN_POINT('',(-0.32,0.325,0.12));
#1933=CARTESIAN_POINT('',(-0.32,0.325,0.12));
#1934=CARTESIAN_POINT('',(-0.32,0.325,0.));
#1935=CARTESIAN_POINT('Origin',(-0.32,0.175,0.));
#1936=CARTESIAN_POINT('',(-0.32,0.175,0.));
#1937=CARTESIAN_POINT('',(-0.32,0.175,0.12));
#1938=CARTESIAN_POINT('Origin',(-0.485,0.25,0.12));
#1939=CARTESIAN_POINT('Origin',(-0.485,0.25,0.));
#1940=CARTESIAN_POINT('Origin',(0.32,0.325,0.));
#1941=CARTESIAN_POINT('',(0.32,0.175,0.));
#1942=CARTESIAN_POINT('',(0.32,0.325,0.));
#1943=CARTESIAN_POINT('',(0.32,0.175,0.));
#1944=CARTESIAN_POINT('',(0.32,0.175,0.12));
#1945=CARTESIAN_POINT('',(0.32,0.175,0.));
#1946=CARTESIAN_POINT('',(0.32,0.325,0.12));
#1947=CARTESIAN_POINT('',(0.32,0.175,0.12));
#1948=CARTESIAN_POINT('',(0.32,0.325,0.));
#1949=CARTESIAN_POINT('Origin',(0.65,0.325,0.));
#1950=CARTESIAN_POINT('',(0.65,0.325,0.));
#1951=CARTESIAN_POINT('',(0.32,0.325,0.));
#1952=CARTESIAN_POINT('',(0.65,0.325,0.12));
#1953=CARTESIAN_POINT('',(0.32,0.325,0.12));
#1954=CARTESIAN_POINT('',(0.65,0.325,0.));
#1955=CARTESIAN_POINT('Origin',(0.65,0.175,0.));
#1956=CARTESIAN_POINT('',(0.65,0.175,0.));
#1957=CARTESIAN_POINT('',(0.65,0.325,0.));
#1958=CARTESIAN_POINT('',(0.65,0.175,0.12));
#1959=CARTESIAN_POINT('',(0.65,0.325,0.12));
#1960=CARTESIAN_POINT('',(0.65,0.175,0.));
#1961=CARTESIAN_POINT('Origin',(0.32,0.175,0.));
#1962=CARTESIAN_POINT('',(0.65,0.175,0.));
#1963=CARTESIAN_POINT('',(0.65,0.175,0.12));
#1964=CARTESIAN_POINT('Origin',(0.485,0.25,0.12));
#1965=CARTESIAN_POINT('Origin',(0.485,0.25,0.));
#1966=CARTESIAN_POINT('Origin',(0.32,-0.325,0.));
#1967=CARTESIAN_POINT('',(0.32,-0.325,0.));
#1968=CARTESIAN_POINT('',(0.65,-0.325,0.));
#1969=CARTESIAN_POINT('',(0.32,-0.325,0.));
#1970=CARTESIAN_POINT('',(0.65,-0.325,0.12));
#1971=CARTESIAN_POINT('',(0.65,-0.325,0.));
#1972=CARTESIAN_POINT('',(0.32,-0.325,0.12));
#1973=CARTESIAN_POINT('',(0.32,-0.325,0.12));
#1974=CARTESIAN_POINT('',(0.32,-0.325,0.));
#1975=CARTESIAN_POINT('Origin',(0.32,-0.175,0.));
#1976=CARTESIAN_POINT('',(0.32,-0.175,0.));
#1977=CARTESIAN_POINT('',(0.32,-0.175,0.));
#1978=CARTESIAN_POINT('',(0.32,-0.175,0.12));
#1979=CARTESIAN_POINT('',(0.32,-0.175,0.12));
#1980=CARTESIAN_POINT('',(0.32,-0.175,0.));
#1981=CARTESIAN_POINT('Origin',(0.65,-0.175,0.));
#1982=CARTESIAN_POINT('',(0.65,-0.175,0.));
#1983=CARTESIAN_POINT('',(0.65,-0.175,0.));
#1984=CARTESIAN_POINT('',(0.65,-0.175,0.12));
#1985=CARTESIAN_POINT('',(0.65,-0.175,0.12));
#1986=CARTESIAN_POINT('',(0.65,-0.175,0.));
#1987=CARTESIAN_POINT('Origin',(0.65,-0.325,0.));
#1988=CARTESIAN_POINT('',(0.65,-0.325,0.));
#1989=CARTESIAN_POINT('',(0.65,-0.325,0.12));
#1990=CARTESIAN_POINT('Origin',(0.485,-0.25,0.12));
#1991=CARTESIAN_POINT('Origin',(0.485,-0.25,0.));
#1992=CARTESIAN_POINT('Origin',(-0.65,-0.175,0.));
#1993=CARTESIAN_POINT('',(-0.65,-0.325,0.));
#1994=CARTESIAN_POINT('',(-0.65,-0.175,0.));
#1995=CARTESIAN_POINT('',(-0.65,-0.325,0.));
#1996=CARTESIAN_POINT('',(-0.65,-0.325,0.12));
#1997=CARTESIAN_POINT('',(-0.65,-0.325,0.));
#1998=CARTESIAN_POINT('',(-0.65,-0.175,0.12));
#1999=CARTESIAN_POINT('',(-0.65,-0.325,0.12));
#2000=CARTESIAN_POINT('',(-0.65,-0.175,0.));
#2001=CARTESIAN_POINT('Origin',(-0.32,-0.175,0.));
#2002=CARTESIAN_POINT('',(-0.32,-0.175,0.));
#2003=CARTESIAN_POINT('',(-0.65,-0.175,0.));
#2004=CARTESIAN_POINT('',(-0.32,-0.175,0.12));
#2005=CARTESIAN_POINT('',(-0.65,-0.175,0.12));
#2006=CARTESIAN_POINT('',(-0.32,-0.175,0.));
#2007=CARTESIAN_POINT('Origin',(-0.32,-0.325,0.));
#2008=CARTESIAN_POINT('',(-0.32,-0.325,0.));
#2009=CARTESIAN_POINT('',(-0.32,-0.175,0.));
#2010=CARTESIAN_POINT('',(-0.32,-0.325,0.12));
#2011=CARTESIAN_POINT('',(-0.32,-0.175,0.12));
#2012=CARTESIAN_POINT('',(-0.32,-0.325,0.));
#2013=CARTESIAN_POINT('Origin',(-0.65,-0.325,0.));
#2014=CARTESIAN_POINT('',(-0.32,-0.325,0.));
#2015=CARTESIAN_POINT('',(-0.32,-0.325,0.12));
#2016=CARTESIAN_POINT('Origin',(-0.485,-0.25,0.12));
#2017=CARTESIAN_POINT('Origin',(-0.485,-0.25,0.));
#2018=UNCERTAINTY_MEASURE_WITH_UNIT(LENGTH_MEASURE(0.01),#2022,
'DISTANCE_ACCURACY_VALUE',
'Maximum model space distance between geometric entities at asserted c
onnectivities');
#2019=UNCERTAINTY_MEASURE_WITH_UNIT(LENGTH_MEASURE(0.01),#2022,
'DISTANCE_ACCURACY_VALUE',
'Maximum model space distance between geometric entities at asserted c
onnectivities');
#2020=(
GEOMETRIC_REPRESENTATION_CONTEXT(3)
GLOBAL_UNCERTAINTY_ASSIGNED_CONTEXT((#2018))
GLOBAL_UNIT_ASSIGNED_CONTEXT((#2022,#2024,#2025))
REPRESENTATION_CONTEXT('','3D')
);
#2021=(
GEOMETRIC_REPRESENTATION_CONTEXT(3)
GLOBAL_UNCERTAINTY_ASSIGNED_CONTEXT((#2019))
GLOBAL_UNIT_ASSIGNED_CONTEXT((#2022,#2024,#2025))
REPRESENTATION_CONTEXT('','3D')
);
#2022=(
LENGTH_UNIT()
NAMED_UNIT(*)
SI_UNIT(.MILLI.,.METRE.)
);
#2023=(
LENGTH_UNIT()
NAMED_UNIT(*)
SI_UNIT($,.METRE.)
);
#2024=(
NAMED_UNIT(*)
PLANE_ANGLE_UNIT()
SI_UNIT($,.RADIAN.)
);
#2025=(
NAMED_UNIT(*)
SI_UNIT($,.STERADIAN.)
SOLID_ANGLE_UNIT()
);
#2026=SHAPE_DEFINITION_REPRESENTATION(#2027,#2028);
#2027=PRODUCT_DEFINITION_SHAPE('',$,#2030);
#2028=SHAPE_REPRESENTATION('',(#1270),#2020);
#2029=PRODUCT_DEFINITION_CONTEXT('part definition',#2034,'design');
#2030=PRODUCT_DEFINITION('(\X2\672A4FDD5B58\X0\)','(\X2\672A4FDD5B58\X0\)',
#2031,#2029);
#2031=PRODUCT_DEFINITION_FORMATION('',$,#2036);
#2032=PRODUCT_RELATED_PRODUCT_CATEGORY('(\X2\672A4FDD5B58\X0\)',
'(\X2\672A4FDD5B58\X0\)',(#2036));
#2033=APPLICATION_PROTOCOL_DEFINITION('international standard',
'automotive_design',2009,#2034);
#2034=APPLICATION_CONTEXT(
'Core Data for Automotive Mechanical Design Process');
#2035=PRODUCT_CONTEXT('part definition',#2034,'mechanical');
#2036=PRODUCT('(\X2\672A4FDD5B58\X0\)','(\X2\672A4FDD5B58\X0\)',$,(#2035));
#2037=PRESENTATION_STYLE_ASSIGNMENT((#2039));
#2038=PRESENTATION_STYLE_ASSIGNMENT((#2040));
#2039=SURFACE_STYLE_USAGE(.BOTH.,#2041);
#2040=SURFACE_STYLE_USAGE(.BOTH.,#2042);
#2041=SURFACE_SIDE_STYLE('',(#2043));
#2042=SURFACE_SIDE_STYLE('',(#2044));
#2043=SURFACE_STYLE_FILL_AREA(#2045);
#2044=SURFACE_STYLE_FILL_AREA(#2046);
#2045=FILL_AREA_STYLE('\X2\94A2\X0\ - \X2\7F0E5149\X0\',(#2047));
#2046=FILL_AREA_STYLE('\X2\94F6\X0\ - \X2\629B5149\X0\',(#2048));
#2047=FILL_AREA_STYLE_COLOUR('\X2\94A2\X0\ - \X2\7F0E5149\X0\',#2049);
#2048=FILL_AREA_STYLE_COLOUR('\X2\94F6\X0\ - \X2\629B5149\X0\',#2050);
#2049=COLOUR_RGB('\X2\94A2\X0\ - \X2\7F0E5149\X0\',0.627450980392157,0.627450980392157,
0.627450980392157);
#2050=COLOUR_RGB('\X2\94F6\X0\ - \X2\629B5149\X0\',0.984313725490196,0.980392156862745,
0.96078431372549);
ENDSEC;
END-ISO-10303-21;
